<svg xmlns="http://www.w3.org/2000/svg" width="587" height="376" viewBox="0 0 587 376" fill="none">
<path d="M297.235 375.431C387.782 375.431 461.088 302.027 460.968 211.48C460.847 120.932 387.346 47.5291 296.799 47.5291C206.251 47.5291 132.945 120.932 133.066 211.48C133.186 302.027 206.687 375.431 297.235 375.431Z" fill="white"/>
<path d="M297.203 375.43C387.751 375.43 461.057 302.027 460.936 211.48C460.816 120.932 387.315 47.5288 296.767 47.5288C206.22 47.5288 132.914 120.932 133.034 211.48C133.155 302.027 206.656 375.43 297.203 375.43Z" stroke="black" stroke-miterlimit="14.0378" stroke-dasharray="6.93 6.93"/>
<path d="M232.487 158.168C231.319 158.168 230.263 157.968 229.319 157.568C228.391 157.168 227.655 156.592 227.111 155.84C226.567 155.088 226.287 154.2 226.271 153.176H229.871C229.919 153.864 230.159 154.408 230.591 154.808C231.039 155.208 231.647 155.408 232.415 155.408C233.199 155.408 233.815 155.224 234.263 154.856C234.711 154.472 234.935 153.976 234.935 153.368C234.935 152.872 234.783 152.464 234.479 152.144C234.175 151.824 233.791 151.576 233.327 151.4C232.879 151.208 232.255 151 231.455 150.776C230.367 150.456 229.479 150.144 228.791 149.84C228.119 149.52 227.535 149.048 227.039 148.424C226.559 147.784 226.319 146.936 226.319 145.88C226.319 144.888 226.567 144.024 227.063 143.288C227.559 142.552 228.255 141.992 229.151 141.608C230.047 141.208 231.071 141.008 232.223 141.008C233.951 141.008 235.351 141.432 236.423 142.28C237.511 143.112 238.111 144.28 238.223 145.784H234.527C234.495 145.208 234.247 144.736 233.783 144.368C233.335 143.984 232.735 143.792 231.983 143.792C231.327 143.792 230.799 143.96 230.399 144.296C230.015 144.632 229.823 145.12 229.823 145.76C229.823 146.208 229.967 146.584 230.255 146.888C230.559 147.176 230.927 147.416 231.359 147.608C231.807 147.784 232.431 147.992 233.231 148.232C234.319 148.552 235.207 148.872 235.895 149.192C236.583 149.512 237.175 149.992 237.671 150.632C238.167 151.272 238.415 152.112 238.415 153.152C238.415 154.048 238.183 154.88 237.719 155.648C237.255 156.416 236.575 157.032 235.679 157.496C234.783 157.944 233.719 158.168 232.487 158.168ZM254.048 144.704L245.816 164.288H242.24L245.12 157.664L239.792 144.704H243.56L246.992 153.992L250.472 144.704H254.048ZM260.947 158.216C259.859 158.216 258.883 158.024 258.019 157.64C257.155 157.24 256.467 156.704 255.955 156.032C255.459 155.36 255.187 154.616 255.139 153.8H258.523C258.587 154.312 258.835 154.736 259.267 155.072C259.715 155.408 260.267 155.576 260.923 155.576C261.563 155.576 262.059 155.448 262.411 155.192C262.779 154.936 262.963 154.608 262.963 154.208C262.963 153.776 262.739 153.456 262.291 153.248C261.859 153.024 261.163 152.784 260.203 152.528C259.211 152.288 258.395 152.04 257.755 151.784C257.131 151.528 256.587 151.136 256.123 150.608C255.675 150.08 255.451 149.368 255.451 148.472C255.451 147.736 255.659 147.064 256.075 146.456C256.507 145.848 257.115 145.368 257.899 145.016C258.699 144.664 259.635 144.488 260.707 144.488C262.291 144.488 263.555 144.888 264.499 145.688C265.443 146.472 265.963 147.536 266.059 148.88H262.843C262.795 148.352 262.571 147.936 262.171 147.632C261.787 147.312 261.267 147.152 260.611 147.152C260.003 147.152 259.531 147.264 259.195 147.488C258.875 147.712 258.715 148.024 258.715 148.424C258.715 148.872 258.939 149.216 259.387 149.456C259.835 149.68 260.531 149.912 261.475 150.152C262.435 150.392 263.227 150.64 263.851 150.896C264.475 151.152 265.011 151.552 265.459 152.096C265.923 152.624 266.163 153.328 266.179 154.208C266.179 154.976 265.963 155.664 265.531 156.272C265.115 156.88 264.507 157.36 263.707 157.712C262.923 158.048 262.003 158.216 260.947 158.216ZM272.849 147.464V153.896C272.849 154.344 272.953 154.672 273.161 154.88C273.385 155.072 273.753 155.168 274.265 155.168H275.825V158H273.713C270.881 158 269.465 156.624 269.465 153.872V147.464H267.881V144.704H269.465V141.416H272.849V144.704H275.825V147.464H272.849ZM290.602 151.064C290.602 151.544 290.57 151.976 290.506 152.36H280.786C280.866 153.32 281.202 154.072 281.794 154.616C282.386 155.16 283.114 155.432 283.978 155.432C285.226 155.432 286.114 154.896 286.642 153.824H290.266C289.882 155.104 289.146 156.16 288.058 156.992C286.97 157.808 285.634 158.216 284.05 158.216C282.77 158.216 281.618 157.936 280.594 157.376C279.586 156.8 278.794 155.992 278.218 154.952C277.658 153.912 277.378 152.712 277.378 151.352C277.378 149.976 277.658 148.768 278.218 147.728C278.778 146.688 279.562 145.888 280.57 145.328C281.578 144.768 282.738 144.488 284.05 144.488C285.314 144.488 286.442 144.76 287.434 145.304C288.442 145.848 289.218 146.624 289.762 147.632C290.322 148.624 290.602 149.768 290.602 151.064ZM287.122 150.104C287.106 149.24 286.794 148.552 286.186 148.04C285.578 147.512 284.834 147.248 283.954 147.248C283.122 147.248 282.418 147.504 281.842 148.016C281.282 148.512 280.938 149.208 280.81 150.104H287.122ZM309.566 144.512C311.198 144.512 312.51 145.016 313.502 146.024C314.51 147.016 315.014 148.408 315.014 150.2V158H311.654V150.656C311.654 149.616 311.39 148.824 310.862 148.28C310.334 147.72 309.614 147.44 308.702 147.44C307.79 147.44 307.062 147.72 306.518 148.28C305.99 148.824 305.726 149.616 305.726 150.656V158H302.366V150.656C302.366 149.616 302.102 148.824 301.574 148.28C301.046 147.72 300.326 147.44 299.414 147.44C298.486 147.44 297.75 147.72 297.206 148.28C296.678 148.824 296.414 149.616 296.414 150.656V158H293.054V144.704H296.414V146.312C296.846 145.752 297.398 145.312 298.07 144.992C298.758 144.672 299.51 144.512 300.326 144.512C301.366 144.512 302.294 144.736 303.11 145.184C303.926 145.616 304.558 146.24 305.006 147.056C305.438 146.288 306.062 145.672 306.878 145.208C307.71 144.744 308.606 144.512 309.566 144.512ZM317.339 151.304C317.339 149.96 317.603 148.768 318.131 147.728C318.675 146.688 319.403 145.888 320.315 145.328C321.243 144.768 322.275 144.488 323.411 144.488C324.403 144.488 325.267 144.688 326.003 145.088C326.755 145.488 327.355 145.992 327.803 146.6V144.704H331.187V158H327.803V156.056C327.371 156.68 326.771 157.2 326.003 157.616C325.251 158.016 324.379 158.216 323.387 158.216C322.267 158.216 321.243 157.928 320.315 157.352C319.403 156.776 318.675 155.968 318.131 154.928C317.603 153.872 317.339 152.664 317.339 151.304ZM327.803 151.352C327.803 150.536 327.643 149.84 327.323 149.264C327.003 148.672 326.571 148.224 326.027 147.92C325.483 147.6 324.899 147.44 324.275 147.44C323.651 147.44 323.075 147.592 322.547 147.896C322.019 148.2 321.587 148.648 321.251 149.24C320.931 149.816 320.771 150.504 320.771 151.304C320.771 152.104 320.931 152.808 321.251 153.416C321.587 154.008 322.019 154.464 322.547 154.784C323.091 155.104 323.667 155.264 324.275 155.264C324.899 155.264 325.483 155.112 326.027 154.808C326.571 154.488 327.003 154.04 327.323 153.464C327.643 152.872 327.803 152.168 327.803 151.352ZM338.381 147.464V153.896C338.381 154.344 338.485 154.672 338.693 154.88C338.917 155.072 339.285 155.168 339.797 155.168H341.357V158H339.245C336.413 158 334.997 156.624 334.997 153.872V147.464H333.413V144.704H334.997V141.416H338.381V144.704H341.357V147.464H338.381ZM345.477 143.12C344.885 143.12 344.389 142.936 343.989 142.568C343.605 142.184 343.413 141.712 343.413 141.152C343.413 140.592 343.605 140.128 343.989 139.76C344.389 139.376 344.885 139.184 345.477 139.184C346.069 139.184 346.557 139.376 346.941 139.76C347.341 140.128 347.541 140.592 347.541 141.152C347.541 141.712 347.341 142.184 346.941 142.568C346.557 142.936 346.069 143.12 345.477 143.12ZM347.133 144.704V158H343.773V144.704H347.133ZM349.589 151.352C349.589 149.976 349.869 148.776 350.429 147.752C350.989 146.712 351.765 145.912 352.757 145.352C353.749 144.776 354.885 144.488 356.165 144.488C357.813 144.488 359.173 144.904 360.245 145.736C361.333 146.552 362.061 147.704 362.429 149.192H358.805C358.613 148.616 358.285 148.168 357.821 147.848C357.373 147.512 356.813 147.344 356.141 147.344C355.181 147.344 354.421 147.696 353.861 148.4C353.301 149.088 353.021 150.072 353.021 151.352C353.021 152.616 353.301 153.6 353.861 154.304C354.421 154.992 355.181 155.336 356.141 155.336C357.501 155.336 358.389 154.728 358.805 153.512H362.429C362.061 154.952 361.333 156.096 360.245 156.944C359.157 157.792 357.797 158.216 356.165 158.216C354.885 158.216 353.749 157.936 352.757 157.376C351.765 156.8 350.989 156 350.429 154.976C349.869 153.936 349.589 152.728 349.589 151.352ZM250.114 175.248L245.434 192H241.474L238.33 180.072L235.042 192L231.106 192.024L226.594 175.248H230.194L233.146 188.256L236.554 175.248H240.298L243.514 188.184L246.49 175.248H250.114ZM254.012 177.12C253.42 177.12 252.924 176.936 252.524 176.568C252.14 176.184 251.948 175.712 251.948 175.152C251.948 174.592 252.14 174.128 252.524 173.76C252.924 173.376 253.42 173.184 254.012 173.184C254.604 173.184 255.092 173.376 255.476 173.76C255.876 174.128 256.076 174.592 256.076 175.152C256.076 175.712 255.876 176.184 255.476 176.568C255.092 176.936 254.604 177.12 254.012 177.12ZM255.668 178.704V192H252.308V178.704H255.668ZM262.9 181.464V187.896C262.9 188.344 263.004 188.672 263.212 188.88C263.436 189.072 263.804 189.168 264.316 189.168H265.876V192H263.764C260.932 192 259.516 190.624 259.516 187.872V181.464H257.932V178.704H259.516V175.416H262.9V178.704H265.876V181.464H262.9ZM275.781 178.512C276.789 178.512 277.685 178.736 278.469 179.184C279.253 179.616 279.861 180.264 280.293 181.128C280.741 181.976 280.965 183 280.965 184.2V192H277.605V184.656C277.605 183.6 277.341 182.792 276.813 182.232C276.285 181.656 275.565 181.368 274.653 181.368C273.725 181.368 272.989 181.656 272.445 182.232C271.917 182.792 271.653 183.6 271.653 184.656V192H268.293V174.24H271.653V180.36C272.085 179.784 272.661 179.336 273.381 179.016C274.101 178.68 274.901 178.512 275.781 178.512ZM283.296 185.304C283.296 183.96 283.56 182.768 284.088 181.728C284.632 180.688 285.368 179.888 286.296 179.328C287.224 178.768 288.256 178.488 289.392 178.488C290.256 178.488 291.08 178.68 291.864 179.064C292.648 179.432 293.272 179.928 293.736 180.552V174.24H297.144V192H293.736V190.032C293.32 190.688 292.736 191.216 291.984 191.616C291.232 192.016 290.36 192.216 289.368 192.216C288.248 192.216 287.224 191.928 286.296 191.352C285.368 190.776 284.632 189.968 284.088 188.928C283.56 187.872 283.296 186.664 283.296 185.304ZM293.76 185.352C293.76 184.536 293.6 183.84 293.28 183.264C292.96 182.672 292.528 182.224 291.984 181.92C291.44 181.6 290.856 181.44 290.232 181.44C289.608 181.44 289.032 181.592 288.504 181.896C287.976 182.2 287.544 182.648 287.208 183.24C286.888 183.816 286.728 184.504 286.728 185.304C286.728 186.104 286.888 186.808 287.208 187.416C287.544 188.008 287.976 188.464 288.504 188.784C289.048 189.104 289.624 189.264 290.232 189.264C290.856 189.264 291.44 189.112 291.984 188.808C292.528 188.488 292.96 188.04 293.28 187.464C293.6 186.872 293.76 186.168 293.76 185.352ZM303.786 180.768C304.218 180.064 304.778 179.512 305.466 179.112C306.17 178.712 306.97 178.512 307.866 178.512V182.04H306.978C305.922 182.04 305.122 182.288 304.578 182.784C304.05 183.28 303.786 184.144 303.786 185.376V192H300.426V178.704H303.786V180.768ZM309.265 185.304C309.265 183.96 309.529 182.768 310.057 181.728C310.601 180.688 311.329 179.888 312.241 179.328C313.169 178.768 314.201 178.488 315.337 178.488C316.329 178.488 317.193 178.688 317.929 179.088C318.681 179.488 319.281 179.992 319.729 180.6V178.704H323.113V192H319.729V190.056C319.297 190.68 318.697 191.2 317.929 191.616C317.177 192.016 316.305 192.216 315.313 192.216C314.193 192.216 313.169 191.928 312.241 191.352C311.329 190.776 310.601 189.968 310.057 188.928C309.529 187.872 309.265 186.664 309.265 185.304ZM319.729 185.352C319.729 184.536 319.569 183.84 319.249 183.264C318.929 182.672 318.497 182.224 317.953 181.92C317.409 181.6 316.825 181.44 316.201 181.44C315.577 181.44 315.001 181.592 314.473 181.896C313.945 182.2 313.513 182.648 313.177 183.24C312.857 183.816 312.697 184.504 312.697 185.304C312.697 186.104 312.857 186.808 313.177 187.416C313.513 188.008 313.945 188.464 314.473 188.784C315.017 189.104 315.593 189.264 316.201 189.264C316.825 189.264 317.409 189.112 317.953 188.808C318.497 188.488 318.929 188.04 319.249 187.464C319.569 186.872 319.729 186.168 319.729 185.352ZM344.826 178.704L340.938 192H337.314L334.89 182.712L332.466 192H328.818L324.906 178.704H328.314L330.666 188.832L333.21 178.704H336.762L339.258 188.808L341.61 178.704H344.826ZM345.78 185.304C345.78 183.96 346.044 182.768 346.572 181.728C347.116 180.688 347.844 179.888 348.756 179.328C349.684 178.768 350.716 178.488 351.852 178.488C352.844 178.488 353.708 178.688 354.444 179.088C355.196 179.488 355.796 179.992 356.244 180.6V178.704H359.628V192H356.244V190.056C355.812 190.68 355.212 191.2 354.444 191.616C353.692 192.016 352.82 192.216 351.828 192.216C350.708 192.216 349.684 191.928 348.756 191.352C347.844 190.776 347.116 189.968 346.572 188.928C346.044 187.872 345.78 186.664 345.78 185.304ZM356.244 185.352C356.244 184.536 356.084 183.84 355.764 183.264C355.444 182.672 355.012 182.224 354.468 181.92C353.924 181.6 353.34 181.44 352.716 181.44C352.092 181.44 351.516 181.592 350.988 181.896C350.46 182.2 350.028 182.648 349.692 183.24C349.372 183.816 349.212 184.504 349.212 185.304C349.212 186.104 349.372 186.808 349.692 187.416C350.028 188.008 350.46 188.464 350.988 188.784C351.532 189.104 352.108 189.264 352.716 189.264C353.34 189.264 353.924 189.112 354.468 188.808C355.012 188.488 355.444 188.04 355.764 187.464C356.084 186.872 356.244 186.168 356.244 185.352ZM366.27 174.24V192H362.91V174.24H366.27ZM284.165 214.432C284.165 215.328 283.949 216.168 283.517 216.952C283.101 217.736 282.437 218.368 281.525 218.848C280.629 219.328 279.493 219.568 278.117 219.568H275.309V226H271.949V209.248H278.117C279.413 209.248 280.517 209.472 281.429 209.92C282.341 210.368 283.021 210.984 283.469 211.768C283.933 212.552 284.165 213.44 284.165 214.432ZM277.973 216.856C278.901 216.856 279.589 216.648 280.037 216.232C280.485 215.8 280.709 215.2 280.709 214.432C280.709 212.8 279.797 211.984 277.973 211.984H275.309V216.856H277.973ZM289.911 208.24V226H286.551V208.24H289.911ZM292.366 219.304C292.366 217.96 292.63 216.768 293.158 215.728C293.702 214.688 294.43 213.888 295.342 213.328C296.27 212.768 297.302 212.488 298.438 212.488C299.43 212.488 300.294 212.688 301.03 213.088C301.782 213.488 302.382 213.992 302.83 214.6V212.704H306.214V226H302.83V224.056C302.398 224.68 301.798 225.2 301.03 225.616C300.278 226.016 299.406 226.216 298.414 226.216C297.294 226.216 296.27 225.928 295.342 225.352C294.43 224.776 293.702 223.968 293.158 222.928C292.63 221.872 292.366 220.664 292.366 219.304ZM302.83 219.352C302.83 218.536 302.67 217.84 302.35 217.264C302.03 216.672 301.598 216.224 301.054 215.92C300.51 215.6 299.926 215.44 299.302 215.44C298.678 215.44 298.102 215.592 297.574 215.896C297.046 216.2 296.614 216.648 296.278 217.24C295.958 217.816 295.798 218.504 295.798 219.304C295.798 220.104 295.958 220.808 296.278 221.416C296.614 222.008 297.046 222.464 297.574 222.784C298.118 223.104 298.694 223.264 299.302 223.264C299.926 223.264 300.51 223.112 301.054 222.808C301.598 222.488 302.03 222.04 302.35 221.464C302.67 220.872 302.83 220.168 302.83 219.352ZM316.864 212.512C318.448 212.512 319.728 213.016 320.704 214.024C321.68 215.016 322.168 216.408 322.168 218.2V226H318.808V218.656C318.808 217.6 318.544 216.792 318.016 216.232C317.488 215.656 316.768 215.368 315.856 215.368C314.928 215.368 314.192 215.656 313.648 216.232C313.12 216.792 312.856 217.6 312.856 218.656V226H309.496V212.704H312.856V214.36C313.304 213.784 313.872 213.336 314.56 213.016C315.264 212.68 316.032 212.512 316.864 212.512Z" fill="#2C6EB5"/>
<path d="M263.434 275.294C261.39 275.294 259.542 274.944 257.89 274.244C256.266 273.544 254.978 272.536 254.026 271.22C253.074 269.904 252.584 268.35 252.556 266.558H258.856C258.94 267.762 259.36 268.714 260.116 269.414C260.9 270.114 261.964 270.464 263.308 270.464C264.68 270.464 265.758 270.142 266.542 269.498C267.326 268.826 267.718 267.958 267.718 266.894C267.718 266.026 267.452 265.312 266.92 264.752C266.388 264.192 265.716 263.758 264.904 263.45C264.12 263.114 263.028 262.75 261.628 262.358C259.724 261.798 258.17 261.252 256.966 260.72C255.79 260.16 254.768 259.334 253.9 258.242C253.06 257.122 252.64 255.638 252.64 253.79C252.64 252.054 253.074 250.542 253.942 249.254C254.81 247.966 256.028 246.986 257.596 246.314C259.164 245.614 260.956 245.264 262.972 245.264C265.996 245.264 268.446 246.006 270.322 247.49C272.226 248.946 273.276 250.99 273.472 253.622H267.004C266.948 252.614 266.514 251.788 265.702 251.144C264.918 250.472 263.868 250.136 262.552 250.136C261.404 250.136 260.48 250.43 259.78 251.018C259.108 251.606 258.772 252.46 258.772 253.58C258.772 254.364 259.024 255.022 259.528 255.554C260.06 256.058 260.704 256.478 261.46 256.814C262.244 257.122 263.336 257.486 264.736 257.906C266.64 258.466 268.194 259.026 269.398 259.586C270.602 260.146 271.638 260.986 272.506 262.106C273.374 263.226 273.808 264.696 273.808 266.516C273.808 268.084 273.402 269.54 272.59 270.884C271.778 272.228 270.588 273.306 269.02 274.118C267.452 274.902 265.59 275.294 263.434 275.294ZM318.092 245.684L309.902 275H302.972L297.47 254.126L291.716 275L284.828 275.042L276.932 245.684H283.232L288.398 268.448L294.362 245.684H300.914L306.542 268.322L311.75 245.684H318.092ZM343.309 254.756C343.309 256.324 342.931 257.794 342.175 259.166C341.447 260.538 340.285 261.644 338.689 262.484C337.121 263.324 335.133 263.744 332.725 263.744H327.811V275H321.931V245.684H332.725C334.993 245.684 336.925 246.076 338.521 246.86C340.117 247.644 341.307 248.722 342.091 250.094C342.903 251.466 343.309 253.02 343.309 254.756ZM332.473 258.998C334.097 258.998 335.301 258.634 336.085 257.906C336.869 257.15 337.261 256.1 337.261 254.756C337.261 251.9 335.665 250.472 332.473 250.472H327.811V258.998H332.473Z" fill="#2C6EB5"/>
<path d="M7.024 286.304C7.024 287.312 6.464 287.968 5.216 287.968H3.344V284.688H5.216C6.464 284.688 7.024 285.312 7.024 286.304ZM1.104 282.832V294H3.344V289.648H4.4L6.864 294H9.456L6.784 289.472C8.576 288.992 9.328 287.616 9.328 286.256C9.328 284.384 7.984 282.832 5.296 282.832H1.104ZM15.162 286.832C16.314 286.832 17.242 287.568 17.274 288.736H13.066C13.242 287.52 14.09 286.832 15.162 286.832ZM19.37 291.216H16.954C16.666 291.808 16.138 292.288 15.178 292.288C14.058 292.288 13.162 291.552 13.05 290.24H19.53C19.578 289.952 19.594 289.664 19.594 289.376C19.594 286.736 17.786 284.992 15.226 284.992C12.602 284.992 10.778 286.768 10.778 289.568C10.778 292.352 12.65 294.144 15.226 294.144C17.418 294.144 18.89 292.848 19.37 291.216ZM20.653 289.536C20.653 292.304 22.445 294.144 24.701 294.144C26.093 294.144 27.101 293.456 27.629 292.688V294.064C27.629 295.712 26.669 296.416 25.437 296.416C24.317 296.416 23.485 295.888 23.261 295.088H21.037C21.261 297.12 23.005 298.368 25.501 298.368C28.413 298.368 29.885 296.464 29.885 294.064V285.136H27.629V286.4C27.101 285.632 26.093 284.992 24.701 284.992C22.445 284.992 20.653 286.768 20.653 289.536ZM27.629 289.568C27.629 291.248 26.509 292.176 25.277 292.176C24.077 292.176 22.941 291.216 22.941 289.536C22.941 287.856 24.077 286.96 25.277 286.96C26.509 286.96 27.629 287.888 27.629 289.568ZM40.4408 285.136H38.1848V290.016C38.1848 291.44 37.4168 292.208 36.2008 292.208C35.0168 292.208 34.2328 291.44 34.2328 290.016V285.136H31.9928V290.336C31.9928 292.768 33.4808 294.112 35.5448 294.112C36.6488 294.112 37.6248 293.632 38.1848 292.88V294H40.4408V285.136ZM42.6509 294H44.8909V282.16H42.6509V294ZM46.528 289.536C46.528 292.304 48.32 294.144 50.56 294.144C51.968 294.144 52.976 293.472 53.504 292.704V294H55.76V285.136H53.504V286.4C52.976 285.664 52 284.992 50.576 284.992C48.32 284.992 46.528 286.768 46.528 289.536ZM53.504 289.568C53.504 291.248 52.384 292.176 51.152 292.176C49.952 292.176 48.816 291.216 48.816 289.536C48.816 287.856 49.952 286.96 51.152 286.96C52.384 286.96 53.504 287.888 53.504 289.568ZM60.1878 289.584C60.1878 287.872 60.9878 287.36 62.3158 287.36H62.9078V285.008C61.6758 285.008 60.7478 285.6 60.1878 286.512V285.136H57.9478V294H60.1878V289.584ZM68.229 294H70.469V282.832H68.229V294ZM78.8901 294H81.1301V288.8C81.1301 286.352 79.6581 285.008 77.5941 285.008C76.4581 285.008 75.4981 285.488 74.9221 286.24V285.136H72.6821V294H74.9221V289.104C74.9221 287.68 75.7061 286.912 76.9221 286.912C78.1061 286.912 78.8901 287.68 78.8901 289.104V294ZM82.6842 289.568C82.6842 292.352 84.5082 294.144 87.0683 294.144C89.2763 294.144 90.7643 292.896 91.2443 291.008H88.8283C88.5563 291.808 87.9803 292.224 87.0523 292.224C85.8043 292.224 84.9723 291.296 84.9723 289.568C84.9723 287.84 85.8043 286.896 87.0523 286.896C87.9803 286.896 88.5723 287.376 88.8283 288.128H91.2443C90.7643 286.144 89.2763 284.992 87.0683 284.992C84.5082 284.992 82.6842 286.784 82.6842 289.568ZM101.445 289.568C101.445 286.768 99.4453 284.992 96.8853 284.992C94.3253 284.992 92.3253 286.768 92.3253 289.568C92.3253 292.352 94.2613 294.144 96.8213 294.144C99.3973 294.144 101.445 292.352 101.445 289.568ZM94.5973 289.568C94.5973 287.792 95.6693 286.944 96.8533 286.944C98.0373 286.944 99.1413 287.792 99.1413 289.568C99.1413 291.328 98.0053 292.192 96.8213 292.192C95.6213 292.192 94.5973 291.328 94.5973 289.568ZM115.488 294H117.728V288.8C117.728 286.352 116.224 285.008 114.096 285.008C112.8 285.008 111.632 285.696 111.056 286.704C110.448 285.6 109.312 285.008 107.936 285.008C106.832 285.008 105.888 285.472 105.328 286.208V285.136H103.088V294H105.328V289.104C105.328 287.696 106.112 286.96 107.328 286.96C108.512 286.96 109.296 287.696 109.296 289.104V294H111.536V289.104C111.536 287.696 112.32 286.96 113.52 286.96C114.704 286.96 115.488 287.696 115.488 289.104V294ZM123.662 286.832C124.814 286.832 125.742 287.568 125.774 288.736H121.566C121.742 287.52 122.59 286.832 123.662 286.832ZM127.87 291.216H125.454C125.166 291.808 124.638 292.288 123.678 292.288C122.558 292.288 121.662 291.552 121.55 290.24H128.03C128.078 289.952 128.094 289.664 128.094 289.376C128.094 286.736 126.286 284.992 123.726 284.992C121.102 284.992 119.278 286.768 119.278 289.568C119.278 292.352 121.15 294.144 123.726 294.144C125.918 294.144 127.39 292.848 127.87 291.216Z" fill="black"/>
<path d="M469.704 282.832V284.64H466.728V294H464.488V284.64H461.512V282.832H469.704ZM470.762 289.536C470.762 288.64 470.938 287.845 471.29 287.152C471.653 286.459 472.138 285.925 472.746 285.552C473.365 285.179 474.053 284.992 474.81 284.992C475.472 284.992 476.048 285.125 476.538 285.392C477.04 285.659 477.44 285.995 477.738 286.4V285.136H479.994V294H477.738V292.704C477.45 293.12 477.05 293.467 476.538 293.744C476.037 294.011 475.456 294.144 474.794 294.144C474.048 294.144 473.365 293.952 472.746 293.568C472.138 293.184 471.653 292.645 471.29 291.952C470.938 291.248 470.762 290.443 470.762 289.536ZM477.738 289.568C477.738 289.024 477.632 288.56 477.418 288.176C477.205 287.781 476.917 287.483 476.554 287.28C476.192 287.067 475.802 286.96 475.386 286.96C474.97 286.96 474.586 287.061 474.234 287.264C473.882 287.467 473.594 287.765 473.37 288.16C473.157 288.544 473.05 289.003 473.05 289.536C473.05 290.069 473.157 290.539 473.37 290.944C473.594 291.339 473.882 291.643 474.234 291.856C474.597 292.069 474.981 292.176 475.386 292.176C475.802 292.176 476.192 292.075 476.554 291.872C476.917 291.659 477.205 291.36 477.418 290.976C477.632 290.581 477.738 290.112 477.738 289.568ZM487.078 294L485.254 291.248L483.638 294H481.238L484.134 289.552L481.206 285.136H483.734L485.542 287.872L487.174 285.136H489.574L486.662 289.552L489.606 294H487.078ZM502.875 289.376C502.875 289.696 502.854 289.984 502.811 290.24H496.331C496.385 290.88 496.609 291.381 497.003 291.744C497.398 292.107 497.883 292.288 498.459 292.288C499.291 292.288 499.883 291.931 500.235 291.216H502.651C502.395 292.069 501.905 292.773 501.179 293.328C500.454 293.872 499.563 294.144 498.507 294.144C497.654 294.144 496.886 293.957 496.203 293.584C495.531 293.2 495.003 292.661 494.619 291.968C494.246 291.275 494.059 290.475 494.059 289.568C494.059 288.651 494.246 287.845 494.619 287.152C494.993 286.459 495.515 285.925 496.187 285.552C496.859 285.179 497.633 284.992 498.507 284.992C499.35 284.992 500.102 285.173 500.763 285.536C501.435 285.899 501.953 286.416 502.315 287.088C502.689 287.749 502.875 288.512 502.875 289.376ZM500.555 288.736C500.545 288.16 500.337 287.701 499.931 287.36C499.526 287.008 499.03 286.832 498.443 286.832C497.889 286.832 497.419 287.003 497.035 287.344C496.662 287.675 496.433 288.139 496.347 288.736H500.555ZM508.574 286.976H507.022V294H504.75V286.976H503.742V285.136H504.75V284.688C504.75 283.6 505.06 282.8 505.678 282.288C506.297 281.776 507.23 281.536 508.478 281.568V283.456C507.934 283.445 507.556 283.536 507.342 283.728C507.129 283.92 507.022 284.267 507.022 284.768V285.136H508.574V286.976ZM514.09 286.976H512.538V294H510.266V286.976H509.258V285.136H510.266V284.688C510.266 283.6 510.575 282.8 511.194 282.288C511.813 281.776 512.746 281.536 513.994 281.568V283.456C513.45 283.445 513.071 283.536 512.858 283.728C512.645 283.92 512.538 284.267 512.538 284.768V285.136H514.09V286.976ZM516.678 284.08C516.283 284.08 515.952 283.957 515.686 283.712C515.43 283.456 515.302 283.141 515.302 282.768C515.302 282.395 515.43 282.085 515.686 281.84C515.952 281.584 516.283 281.456 516.678 281.456C517.072 281.456 517.398 281.584 517.654 281.84C517.92 282.085 518.054 282.395 518.054 282.768C518.054 283.141 517.92 283.456 517.654 283.712C517.398 283.957 517.072 284.08 516.678 284.08ZM517.782 285.136V294H515.542V285.136H517.782ZM519.419 289.568C519.419 288.651 519.605 287.851 519.979 287.168C520.352 286.475 520.869 285.941 521.531 285.568C522.192 285.184 522.949 284.992 523.803 284.992C524.901 284.992 525.808 285.269 526.523 285.824C527.248 286.368 527.733 287.136 527.979 288.128H525.563C525.435 287.744 525.216 287.445 524.907 287.232C524.608 287.008 524.235 286.896 523.787 286.896C523.147 286.896 522.64 287.131 522.267 287.6C521.893 288.059 521.707 288.715 521.707 289.568C521.707 290.411 521.893 291.067 522.267 291.536C522.64 291.995 523.147 292.224 523.787 292.224C524.693 292.224 525.285 291.819 525.563 291.008H527.979C527.733 291.968 527.248 292.731 526.523 293.296C525.797 293.861 524.891 294.144 523.803 294.144C522.949 294.144 522.192 293.957 521.531 293.584C520.869 293.2 520.352 292.667 519.979 291.984C519.605 291.291 519.419 290.485 519.419 289.568ZM530.756 284.08C530.361 284.08 530.03 283.957 529.764 283.712C529.508 283.456 529.38 283.141 529.38 282.768C529.38 282.395 529.508 282.085 529.764 281.84C530.03 281.584 530.361 281.456 530.756 281.456C531.15 281.456 531.476 281.584 531.732 281.84C531.998 282.085 532.132 282.395 532.132 282.768C532.132 283.141 531.998 283.456 531.732 283.712C531.476 283.957 531.15 284.08 530.756 284.08ZM531.86 285.136V294H529.62V285.136H531.86ZM542.313 289.376C542.313 289.696 542.291 289.984 542.249 290.24H535.769C535.822 290.88 536.046 291.381 536.441 291.744C536.835 292.107 537.321 292.288 537.897 292.288C538.729 292.288 539.321 291.931 539.673 291.216H542.089C541.833 292.069 541.342 292.773 540.617 293.328C539.891 293.872 539.001 294.144 537.945 294.144C537.091 294.144 536.323 293.957 535.641 293.584C534.969 293.2 534.441 292.661 534.057 291.968C533.683 291.275 533.497 290.475 533.497 289.568C533.497 288.651 533.683 287.845 534.057 287.152C534.43 286.459 534.953 285.925 535.625 285.552C536.297 285.179 537.07 284.992 537.945 284.992C538.787 284.992 539.539 285.173 540.201 285.536C540.873 285.899 541.39 286.416 541.753 287.088C542.126 287.749 542.313 288.512 542.313 289.376ZM539.993 288.736C539.982 288.16 539.774 287.701 539.369 287.36C538.963 287.008 538.467 286.832 537.881 286.832C537.326 286.832 536.857 287.003 536.473 287.344C536.099 287.675 535.87 288.139 535.785 288.736H539.993ZM548.86 285.008C549.916 285.008 550.769 285.344 551.42 286.016C552.07 286.677 552.396 287.605 552.396 288.8V294H550.156V289.104C550.156 288.4 549.98 287.861 549.628 287.488C549.276 287.104 548.796 286.912 548.188 286.912C547.569 286.912 547.078 287.104 546.716 287.488C546.364 287.861 546.188 288.4 546.188 289.104V294H543.948V285.136H546.188V286.24C546.486 285.856 546.865 285.557 547.324 285.344C547.793 285.12 548.305 285.008 548.86 285.008ZM553.95 289.568C553.95 288.651 554.137 287.851 554.51 287.168C554.883 286.475 555.401 285.941 556.062 285.568C556.723 285.184 557.481 284.992 558.334 284.992C559.433 284.992 560.339 285.269 561.054 285.824C561.779 286.368 562.265 287.136 562.51 288.128H560.094C559.966 287.744 559.747 287.445 559.438 287.232C559.139 287.008 558.766 286.896 558.318 286.896C557.678 286.896 557.171 287.131 556.798 287.6C556.425 288.059 556.238 288.715 556.238 289.568C556.238 290.411 556.425 291.067 556.798 291.536C557.171 291.995 557.678 292.224 558.318 292.224C559.225 292.224 559.817 291.819 560.094 291.008H562.51C562.265 291.968 561.779 292.731 561.054 293.296C560.329 293.861 559.422 294.144 558.334 294.144C557.481 294.144 556.723 293.957 556.062 293.584C555.401 293.2 554.883 292.667 554.51 291.984C554.137 291.291 553.95 290.485 553.95 289.568ZM572.631 285.136L567.143 298.192H564.759L566.679 293.776L563.127 285.136H565.639L567.927 291.328L570.247 285.136H572.631ZM474.392 309.136L471.8 318H469.384L467.768 311.808L466.152 318H463.72L461.112 309.136H463.384L464.952 315.888L466.648 309.136H469.016L470.68 315.872L472.248 309.136H474.392ZM475.028 313.536C475.028 312.64 475.204 311.845 475.556 311.152C475.919 310.459 476.404 309.925 477.012 309.552C477.631 309.179 478.319 308.992 479.076 308.992C479.737 308.992 480.313 309.125 480.804 309.392C481.305 309.659 481.705 309.995 482.004 310.4V309.136H484.26V318H482.004V316.704C481.716 317.12 481.316 317.467 480.804 317.744C480.303 318.011 479.721 318.144 479.06 318.144C478.313 318.144 477.631 317.952 477.012 317.568C476.404 317.184 475.919 316.645 475.556 315.952C475.204 315.248 475.028 314.443 475.028 313.536ZM482.004 313.568C482.004 313.024 481.897 312.56 481.684 312.176C481.471 311.781 481.183 311.483 480.82 311.28C480.457 311.067 480.068 310.96 479.652 310.96C479.236 310.96 478.852 311.061 478.5 311.264C478.148 311.467 477.86 311.765 477.636 312.16C477.423 312.544 477.316 313.003 477.316 313.536C477.316 314.069 477.423 314.539 477.636 314.944C477.86 315.339 478.148 315.643 478.5 315.856C478.863 316.069 479.247 316.176 479.652 316.176C480.068 316.176 480.457 316.075 480.82 315.872C481.183 315.659 481.471 315.36 481.684 314.976C481.897 314.581 482.004 314.112 482.004 313.568ZM494.928 309.136L489.44 322.192H487.056L488.976 317.776L485.424 309.136H487.936L490.224 315.328L492.544 309.136H494.928Z" fill="black"/>
<path d="M357.968 34.112V38H360.208V34.112L363.984 26.832H361.488L359.104 31.936L356.704 26.832H354.176L357.968 34.112ZM373.836 33.568C373.836 30.768 371.836 28.992 369.276 28.992C366.716 28.992 364.716 30.768 364.716 33.568C364.716 36.352 366.652 38.144 369.212 38.144C371.788 38.144 373.836 36.352 373.836 33.568ZM366.988 33.568C366.988 31.792 368.06 30.944 369.244 30.944C370.428 30.944 371.532 31.792 371.532 33.568C371.532 35.328 370.396 36.192 369.212 36.192C368.012 36.192 366.988 35.328 366.988 33.568ZM383.847 29.136H381.591V34.016C381.591 35.44 380.823 36.208 379.607 36.208C378.423 36.208 377.639 35.44 377.639 34.016V29.136H375.399V34.336C375.399 36.768 376.887 38.112 378.951 38.112C380.055 38.112 381.031 37.632 381.591 36.88V38H383.847V29.136ZM388.297 33.584C388.297 31.872 389.097 31.36 390.425 31.36H391.017V29.008C389.785 29.008 388.857 29.6 388.297 30.512V29.136H386.057V38H388.297V33.584ZM396.338 38H398.578V26.832H396.338V38ZM407 38H409.24V32.8C409.24 30.352 407.767 29.008 405.704 29.008C404.568 29.008 403.608 29.488 403.032 30.24V29.136H400.792V38H403.032V33.104C403.032 31.68 403.816 30.912 405.032 30.912C406.216 30.912 407 31.68 407 33.104V38ZM410.426 29.136L413.69 38H416.41L419.69 29.136H417.306L415.066 35.936L412.826 29.136H410.426ZM424.756 30.832C425.908 30.832 426.836 31.568 426.868 32.736H422.66C422.836 31.52 423.684 30.832 424.756 30.832ZM428.964 35.216H426.548C426.26 35.808 425.732 36.288 424.772 36.288C423.652 36.288 422.756 35.552 422.644 34.24H429.124C429.172 33.952 429.188 33.664 429.188 33.376C429.188 30.736 427.38 28.992 424.82 28.992C422.196 28.992 420.372 30.768 420.372 33.568C420.372 36.352 422.244 38.144 424.82 38.144C427.012 38.144 428.484 36.848 428.964 35.216ZM437.703 35.472C437.639 32.224 432.727 33.232 432.727 31.616C432.727 31.104 433.159 30.768 433.991 30.768C434.871 30.768 435.415 31.232 435.479 31.92H437.623C437.495 30.16 436.199 28.992 434.055 28.992C431.863 28.992 430.551 30.176 430.551 31.648C430.551 34.896 435.559 33.888 435.559 35.472C435.559 35.984 435.079 36.384 434.199 36.384C433.303 36.384 432.679 35.872 432.599 35.2H430.343C430.439 36.848 431.991 38.144 434.215 38.144C436.375 38.144 437.703 36.992 437.703 35.472ZM439.894 35.248C439.894 37.28 441.03 38 442.726 38H444.134V36.112H443.094C442.39 36.112 442.15 35.856 442.15 35.264V30.976H444.134V29.136H442.15V26.944H439.894V29.136H438.838V30.976H439.894V35.248ZM458.145 38H460.385V32.8C460.385 30.352 458.881 29.008 456.753 29.008C455.457 29.008 454.289 29.696 453.713 30.704C453.105 29.6 451.969 29.008 450.593 29.008C449.489 29.008 448.545 29.472 447.985 30.208V29.136H445.745V38H447.985V33.104C447.985 31.696 448.769 30.96 449.985 30.96C451.169 30.96 451.953 31.696 451.953 33.104V38H454.193V33.104C454.193 31.696 454.977 30.96 456.177 30.96C457.361 30.96 458.145 31.696 458.145 33.104V38ZM466.318 30.832C467.47 30.832 468.398 31.568 468.43 32.736H464.222C464.398 31.52 465.246 30.832 466.318 30.832ZM470.526 35.216H468.11C467.822 35.808 467.294 36.288 466.334 36.288C465.214 36.288 464.318 35.552 464.206 34.24H470.686C470.734 33.952 470.75 33.664 470.75 33.376C470.75 30.736 468.942 28.992 466.382 28.992C463.758 28.992 461.934 30.768 461.934 33.568C461.934 36.352 463.806 38.144 466.382 38.144C468.574 38.144 470.046 36.848 470.526 35.216ZM478.593 38H480.833V32.8C480.833 30.352 479.361 29.008 477.297 29.008C476.161 29.008 475.201 29.488 474.625 30.24V29.136H472.385V38H474.625V33.104C474.625 31.68 475.409 30.912 476.625 30.912C477.809 30.912 478.593 31.68 478.593 33.104V38ZM483.315 35.248C483.315 37.28 484.451 38 486.147 38H487.555V36.112H486.515C485.811 36.112 485.571 35.856 485.571 35.264V30.976H487.555V29.136H485.571V26.944H483.315V29.136H482.259V30.976H483.315V35.248ZM496.047 35.472C495.983 32.224 491.071 33.232 491.071 31.616C491.071 31.104 491.503 30.768 492.335 30.768C493.215 30.768 493.759 31.232 493.823 31.92H495.967C495.839 30.16 494.543 28.992 492.399 28.992C490.207 28.992 488.895 30.176 488.895 31.648C488.895 34.896 493.903 33.888 493.903 35.472C493.903 35.984 493.423 36.384 492.543 36.384C491.647 36.384 491.023 35.872 490.943 35.2H488.687C488.783 36.848 490.335 38.144 492.559 38.144C494.719 38.144 496.047 36.992 496.047 35.472Z" fill="black"/>
<path d="M141.21 274.045C165.792 273.736 185.443 253.559 185.102 228.978C184.761 204.396 164.557 184.719 139.975 185.028C115.393 185.336 95.7421 205.513 96.0834 230.095C96.4246 254.676 116.629 274.353 141.21 274.045Z" fill="white" stroke="#E9F0F7" stroke-width="5"/>
<g clip-path="url(#clip0_1541_190630)">
<path d="M120 217.392C120.008 218.125 120.297 218.827 120.806 219.353C121.316 219.879 122.008 220.19 122.74 220.221V214.514C122.001 214.548 121.303 214.867 120.792 215.403C120.282 215.94 119.998 216.652 120 217.392Z" fill="#D7DF36"/>
<path d="M134.831 213.404C134.831 213.223 134.866 213.043 134.935 212.875C135.004 212.707 135.105 212.554 135.233 212.425C135.361 212.296 135.513 212.194 135.681 212.124C135.848 212.054 136.028 212.018 136.21 212.017H144.892V211.391C144.892 211.022 144.746 210.668 144.485 210.407C144.224 210.147 143.87 210 143.501 210H125.01C124.642 210.001 124.289 210.148 124.029 210.409C123.769 210.67 123.623 211.023 123.623 211.391V220.25H134.831V213.404Z" fill="#D7DF36"/>
<path d="M135.705 213.404V220.25H152.015V213.404C152.015 213.271 151.963 213.144 151.871 213.049C151.778 212.954 151.652 212.899 151.519 212.896H136.209C136.075 212.897 135.947 212.951 135.853 213.046C135.758 213.141 135.705 213.27 135.705 213.404Z" fill="#D7DF36"/>
<path d="M154.462 215.682C154.462 215.527 154.431 215.375 154.372 215.232C154.313 215.09 154.226 214.96 154.117 214.851C154.008 214.742 153.878 214.656 153.735 214.597C153.592 214.539 153.439 214.509 153.285 214.509H152.898V220.25H154.462V215.682Z" fill="#D7DF36"/>
<path d="M153.931 236.833C154.191 236.833 154.445 236.756 154.661 236.612C154.878 236.467 155.046 236.262 155.146 236.021C155.245 235.781 155.272 235.517 155.221 235.261C155.17 235.006 155.045 234.772 154.861 234.588C154.677 234.404 154.442 234.279 154.187 234.228C153.932 234.177 153.668 234.203 153.427 234.303C153.187 234.402 152.981 234.571 152.837 234.787C152.692 235.004 152.615 235.258 152.615 235.518C152.615 235.867 152.754 236.201 153.001 236.448C153.247 236.695 153.582 236.833 153.931 236.833Z" fill="#2C6EB5"/>
<path d="M149.418 235.518C149.42 236.654 149.873 237.743 150.676 238.546C151.479 239.35 152.568 239.802 153.705 239.804H160.345V231.231H153.717C153.153 231.23 152.595 231.34 152.074 231.555C151.552 231.77 151.078 232.085 150.679 232.484C150.28 232.882 149.963 233.354 149.747 233.875C149.53 234.396 149.419 234.954 149.418 235.518ZM156.108 235.518C156.108 235.952 155.98 236.376 155.738 236.737C155.497 237.098 155.154 237.379 154.753 237.545C154.352 237.711 153.911 237.754 153.485 237.669C153.06 237.584 152.669 237.375 152.362 237.068C152.055 236.76 151.847 236.369 151.763 235.943C151.678 235.517 151.722 235.076 151.889 234.675C152.056 234.275 152.338 233.932 152.699 233.692C153.06 233.451 153.485 233.323 153.919 233.324C154.21 233.32 154.498 233.373 154.768 233.481C155.038 233.59 155.283 233.751 155.49 233.955C155.697 234.159 155.862 234.402 155.973 234.671C156.085 234.939 156.143 235.227 156.142 235.518H156.108Z" fill="#2C6EB5"/>
<path d="M160.345 224.226V222.435C160.345 222.09 160.207 221.758 159.963 221.514C159.719 221.27 159.387 221.132 159.042 221.132H122.744C122.217 221.114 121.7 220.985 121.227 220.752C120.754 220.52 120.336 220.19 120 219.783V247.193C120.001 247.937 120.297 248.65 120.823 249.176C121.35 249.703 122.063 249.999 122.807 250H157.533C158.278 249.999 158.993 249.702 159.52 249.175C160.047 248.648 160.343 247.934 160.345 247.188V240.683H153.717C153.027 240.702 152.339 240.584 151.696 240.333C151.052 240.082 150.465 239.705 149.97 239.224C149.475 238.742 149.081 238.167 148.812 237.53C148.543 236.894 148.405 236.211 148.405 235.52C148.405 234.829 148.543 234.146 148.812 233.509C149.081 232.873 149.475 232.297 149.97 231.816C150.465 231.335 151.052 230.958 151.696 230.707C152.339 230.456 153.027 230.337 153.717 230.357H160.345V224.226ZM155.722 247.365H157.474V248.243H155.722V247.365ZM152.213 247.365H153.965V248.243H152.208L152.213 247.365ZM148.704 247.365H150.46V248.243H148.699L148.704 247.365ZM131.519 223.242H133.272V224.116H131.519V223.242ZM128.01 223.242H129.767V224.116H128.01V223.242ZM121.757 227.588H122.635V229.34H121.757V227.588ZM121.757 231.093H122.635V232.849H121.757V231.093ZM121.757 234.602H122.635V236.354H121.757V234.602ZM121.757 238.111H122.635V239.863H121.757V238.111ZM121.757 241.616H122.635V243.372H121.757V241.616ZM122.374 247.029C121.972 246.499 121.755 245.853 121.757 245.188V245.129H122.635V245.192C122.63 245.663 122.777 246.123 123.055 246.503L122.374 247.029ZM122.635 225.844L121.757 225.818C121.767 225.468 121.847 225.123 121.991 224.803C122.135 224.484 122.341 224.196 122.597 223.957L123.198 224.595C123.026 224.755 122.887 224.948 122.79 225.162C122.694 225.377 122.641 225.608 122.635 225.844ZM125.884 248.243H124.816C124.555 248.243 124.296 248.21 124.043 248.147L124.266 247.306C124.445 247.352 124.631 247.374 124.816 247.373H125.884V248.243ZM126.258 224.116H124.501V223.242H126.258V224.116ZM129.41 248.243H127.653V247.365H129.41V248.243ZM132.914 248.243H131.162V247.365H132.914V248.243ZM136.424 248.243H134.671V247.365H136.424V248.243ZM136.781 224.116H135.028V223.242H136.781V224.116ZM139.933 248.243H138.176V247.365H139.933V248.243ZM140.29 224.116H138.533V223.242H140.29V224.116ZM143.438 248.243H141.685V247.365H143.438V248.243ZM143.795 224.116H142.042V223.242H143.795V224.116ZM146.947 248.243H145.215V247.365H146.968L146.947 248.243ZM147.317 224.116H145.552V223.242H147.317V224.116ZM150.826 224.116H149.057V223.242H150.813L150.826 224.116ZM154.331 224.116H152.566V223.242H154.318L154.331 224.116ZM157.823 224.116H156.075V223.242H157.823V224.116Z" fill="#2C6EB5"/>
</g>
<path d="M455.21 274.045C479.792 273.736 499.443 253.559 499.102 228.978C498.761 204.396 478.557 184.719 453.975 185.028C429.393 185.336 409.742 205.513 410.083 230.095C410.425 254.676 430.629 274.353 455.21 274.045Z" fill="white" stroke="#E9F0F7" stroke-width="5"/>
<path d="M431 210H478.619V222.683C478.619 227.099 475.116 230.642 470.75 230.642V217.908H438.869V230.693C434.503 230.693 431 227.15 431 222.734V210Z" fill="#D7DF23"/>
<path d="M452.626 240.552C452.626 241.784 453.59 242.76 454.809 242.76C456.027 242.76 456.992 241.784 456.992 240.552C456.992 239.32 456.027 238.344 454.809 238.344C453.641 238.344 452.626 239.32 452.626 240.552ZM441.863 220.834V246.354C441.863 248.357 443.488 250 445.468 250H464.15C466.13 250 467.754 248.357 467.754 246.354V220.834H464.658V242.606C464.454 242.554 464.201 242.554 463.998 242.554C461.967 242.554 460.342 244.198 460.342 246.252C460.342 246.457 460.342 246.714 460.393 246.919H449.224C449.275 246.714 449.275 246.508 449.275 246.252C449.275 244.198 447.651 242.554 445.62 242.554C445.366 242.554 445.163 242.554 444.96 242.606V220.834H441.863ZM454.809 236.906C450.443 236.906 446.889 233.312 446.889 228.896C446.889 224.48 450.443 220.886 454.809 220.886C459.175 220.886 462.728 224.48 462.728 228.896C462.728 233.26 459.175 236.906 454.809 236.906ZM458.87 227.099L457.347 225.507L453.793 229.05L452.321 227.561L450.747 229.101L452.22 230.59L453.743 232.182L455.316 230.642L458.87 227.099Z" fill="#2C6EB5"/>
<path d="M297.21 92.0445C321.792 91.7359 341.443 71.5586 341.102 46.9773C340.761 22.3959 320.557 2.71889 295.975 3.02743C271.393 3.33597 251.742 23.5132 252.083 48.0946C252.425 72.676 272.629 92.353 297.21 92.0445Z" fill="white" stroke="#E9F0F7" stroke-width="5"/>
<g clip-path="url(#clip1_1541_190630)">
<path d="M314.76 49.5923C314.661 49.5923 314.556 49.5952 314.449 49.601L314.239 49.6122L314.21 49.4043C313.455 43.8926 308.554 39.4501 302.03 37.822C301.414 38.4109 300.683 38.8692 299.881 39.1689H302.19C302.221 39.1676 302.252 39.1725 302.281 39.1834C302.31 39.1942 302.337 39.2107 302.359 39.232C302.382 39.2532 302.399 39.2787 302.412 39.3069C302.424 39.3352 302.43 39.3655 302.43 39.3962C302.43 39.4269 302.424 39.4573 302.412 39.4855C302.399 39.5137 302.382 39.5392 302.359 39.5605C302.337 39.5817 302.31 39.5982 302.281 39.6091C302.252 39.6199 302.221 39.6248 302.19 39.6235H293.044C292.985 39.621 292.929 39.5959 292.888 39.5536C292.847 39.5112 292.824 39.4549 292.824 39.3962C292.824 39.3376 292.847 39.2812 292.888 39.2388C292.929 39.1965 292.985 39.1715 293.044 39.1689H295.303C294.501 38.8691 293.769 38.4108 293.153 37.822C293.027 37.7031 292.909 37.5791 292.797 37.4523C291.645 37.6407 290.511 37.9214 289.405 38.2915L291.017 40.8207C291.047 40.8716 291.056 40.9321 291.042 40.9895C291.028 41.0468 290.991 41.0964 290.941 41.1278C290.89 41.1592 290.829 41.17 290.771 41.1577C290.712 41.1455 290.661 41.1113 290.627 41.0623L290.585 40.9987L288.956 38.4483L288.826 38.2437L288.7 38.0461L287.351 35.9324L286.988 38.7602L286.972 38.8803L286.954 39.0301L286.933 39.191L286.918 39.3099L286.893 39.5012L286.667 41.2653L286.575 41.9776L286.564 42.0645C286.557 42.1195 286.53 42.1701 286.488 42.2068C286.446 42.2435 286.392 42.2637 286.336 42.2637H286.307C286.246 42.2561 286.191 42.2252 286.154 42.1776C286.116 42.13 286.1 42.0698 286.107 42.0101L286.178 41.4532L286.421 39.5653C285.611 39.9906 284.836 40.4772 284.103 41.0207C284.026 41.0781 283.949 41.1363 283.873 41.1954C283.797 41.2545 283.72 41.3146 283.643 41.3759C281.948 42.7316 280.601 44.3646 279.737 46.2027L279.676 46.3345H276V55.3776H279.676L279.737 55.509C280.975 58.1439 283.205 60.3986 286.186 62.03L286.319 62.1032L286.303 62.2533C286.271 62.5445 286.255 62.8371 286.255 63.1299C286.255 64.4499 286.571 65.6874 287.144 66.6148C287.694 67.5068 288.415 67.9983 289.173 67.9983C289.813 67.9983 290.422 67.6515 290.937 66.9961C291.451 66.3407 291.832 65.3976 291.995 64.3584L292.032 64.1263L292.266 64.1679C294.703 64.62 297.198 64.6783 299.654 64.3405L299.874 64.3105L299.916 64.5293C300.287 66.5728 301.435 68 302.71 68C303.468 68 304.188 67.5084 304.739 66.6164C305.312 65.6891 305.628 64.4515 305.628 63.1316C305.628 63.0177 305.625 62.9 305.62 62.781L305.613 62.6305L305.751 62.566C310.577 60.3005 313.751 56.3732 314.239 52.06L314.263 51.8479L314.479 51.8583C314.572 51.8628 314.667 51.8649 314.76 51.8649C316.304 51.8649 317.379 51.2661 317.379 50.7284C317.379 50.1907 316.304 49.5923 314.76 49.5923ZM284.377 47.9559C284.141 47.956 283.91 47.887 283.714 47.7577C283.518 47.6284 283.365 47.4446 283.275 47.2295C283.184 47.0145 283.161 46.7777 283.206 46.5494C283.252 46.321 283.366 46.1112 283.533 45.9465C283.7 45.7818 283.912 45.6696 284.144 45.6241C284.375 45.5786 284.615 45.6018 284.833 45.6908C285.051 45.7798 285.237 45.9307 285.369 46.1242C285.5 46.3178 285.57 46.5454 285.57 46.7782C285.57 46.9328 285.539 47.0858 285.479 47.2286C285.419 47.3714 285.332 47.5012 285.221 47.6105C285.11 47.7198 284.979 47.8066 284.834 47.8658C284.689 47.9249 284.534 47.9554 284.378 47.9555L284.377 47.9559Z" fill="#2C6EB5"/>
<path d="M297.588 28C294.371 28 291.764 30.4905 291.764 33.5637V33.683C291.764 33.7151 291.764 33.7467 291.767 33.7783V33.8128C291.767 33.8485 291.77 33.8847 291.773 33.9201C291.775 33.9554 291.777 33.9829 291.78 34.0136C291.78 34.0269 291.78 34.0398 291.783 34.0527V34.0619C291.786 34.0931 291.789 34.1243 291.793 34.155L291.801 34.2282V34.2424C291.805 34.2677 291.808 34.2927 291.812 34.318C291.816 34.3434 291.818 34.3642 291.822 34.3879C291.826 34.4183 291.832 34.449 291.837 34.4794C291.838 34.4895 291.84 34.4995 291.842 34.5093V34.5193C291.848 34.5518 291.854 34.5834 291.861 34.6154C291.864 34.6299 291.867 34.6449 291.87 34.6595C291.875 34.6827 291.88 34.7052 291.885 34.7285C291.888 34.7435 291.891 34.7588 291.895 34.7742C291.899 34.7896 291.902 34.8046 291.906 34.8196C291.909 34.8345 291.91 34.8391 291.913 34.8491C291.921 34.8836 291.93 34.9177 291.939 34.9518C291.949 34.9876 291.959 35.0233 291.969 35.0587C291.974 35.0774 291.98 35.0957 291.986 35.1144C291.992 35.1331 291.997 35.1518 292.003 35.1701C292.026 35.2429 292.051 35.3153 292.076 35.3864C292.089 35.4221 292.103 35.4579 292.119 35.4932C292.147 35.5631 292.175 35.6326 292.203 35.7012L292.214 35.7261L292.232 35.7677L292.25 35.8093C292.266 35.8438 292.282 35.8779 292.299 35.912L292.35 36.0135C292.367 36.0472 292.379 36.0684 292.392 36.0966L292.402 36.1145C292.42 36.1478 292.438 36.1802 292.457 36.2131V36.216C292.475 36.248 292.493 36.2796 292.512 36.3112L292.541 36.3595C292.551 36.3757 292.561 36.3919 292.571 36.4077C292.591 36.4397 292.611 36.4717 292.632 36.5029V36.5063C292.657 36.5441 292.682 36.5807 292.706 36.6177C292.732 36.6551 292.758 36.6917 292.785 36.7287C292.812 36.7657 292.839 36.8019 292.866 36.8377C292.894 36.8735 292.93 36.9209 292.962 36.9595C292.994 36.9982 293.018 37.0286 293.046 37.0627C293.074 37.0968 293.098 37.123 293.124 37.1529C293.128 37.1567 293.131 37.1608 293.134 37.1641C293.169 37.2032 293.205 37.2423 293.241 37.2806C293.264 37.3047 293.287 37.3288 293.31 37.3525L293.328 37.3704L293.378 37.4207L293.428 37.4702C293.463 37.5035 293.497 37.5359 293.532 37.5679C293.557 37.5908 293.581 37.6133 293.607 37.6357L293.63 37.6565L293.658 37.6806L293.747 37.7559L293.801 37.8C293.818 37.8147 293.836 37.8286 293.855 37.8416C293.86 37.8457 293.865 37.8496 293.87 37.8532C293.901 37.8782 293.933 37.9027 293.965 37.9268L293.979 37.9372C294.014 37.9634 294.05 37.99 294.087 38.0158C294.123 38.0416 294.164 38.0703 294.203 38.099C294.236 38.1214 294.269 38.1435 294.303 38.1655L294.309 38.1697L294.343 38.1909C294.372 38.2104 294.403 38.2296 294.434 38.2483L294.445 38.2549C294.487 38.2799 294.529 38.3044 294.569 38.3285L294.674 38.3876L294.703 38.403C294.734 38.4204 294.765 38.4366 294.797 38.4529H294.799L294.849 38.4782L294.859 38.4832C294.89 38.499 294.922 38.5152 294.954 38.5302C294.975 38.541 294.996 38.551 295.019 38.5614L295.086 38.5918L295.153 38.6217L295.216 38.6483C295.354 38.7068 295.494 38.7602 295.638 38.8084C295.676 38.8213 295.713 38.833 295.751 38.8446C295.843 38.8737 295.935 38.9003 296.029 38.9249L296.048 38.9298C296.094 38.9419 296.141 38.9531 296.188 38.9639L296.234 38.9748L296.305 38.9901C296.371 39.0043 296.438 39.0176 296.505 39.0292L296.575 39.0409L296.65 39.0525C296.675 39.0567 296.701 39.0604 296.725 39.0633L296.761 39.0683L296.826 39.0771H296.838L296.905 39.0841L296.978 39.092C297.015 39.0958 297.052 39.0987 297.088 39.1016C297.117 39.1037 297.145 39.1062 297.173 39.1074C297.2 39.1087 297.238 39.112 297.272 39.1132C297.321 39.1132 297.37 39.1174 297.419 39.1186H297.738L297.844 39.1149H297.871C297.903 39.115 297.935 39.1132 297.967 39.1095L298.01 39.1062H298.018C298.036 39.1058 298.054 39.1044 298.072 39.102L298.126 39.0974L298.168 39.0933L298.237 39.0858L298.262 39.0829C298.305 39.0783 298.344 39.0733 298.385 39.0679L298.408 39.0646L298.457 39.0579L298.499 39.0513L298.531 39.0463C298.576 39.0396 298.621 39.0317 298.665 39.0234L298.813 38.9947L298.904 38.9748H298.913L299.003 38.9535L299.093 38.9311C299.131 38.9215 299.169 38.9111 299.206 38.9007C299.244 38.8903 299.28 38.8799 299.317 38.8683C299.354 38.8567 299.397 38.8442 299.436 38.8313L299.444 38.8284C299.482 38.8159 299.519 38.8038 299.555 38.7905L299.585 38.7801L299.666 38.751L299.687 38.744L299.703 38.7377L299.769 38.7124C299.785 38.7065 299.802 38.7003 299.818 38.6932L299.902 38.6595L299.94 38.6437C299.982 38.6263 300.02 38.6092 300.06 38.5909C300.098 38.5735 300.136 38.556 300.174 38.5377C300.212 38.5194 300.247 38.5023 300.283 38.4836C300.303 38.4741 300.322 38.4641 300.342 38.4537C300.37 38.4396 300.397 38.4254 300.426 38.4121C300.456 38.3988 300.494 38.3759 300.526 38.3572L300.623 38.3015C300.663 38.2782 300.702 38.2545 300.741 38.23C300.751 38.2246 300.76 38.2183 300.77 38.2121C300.8 38.1934 300.829 38.1742 300.859 38.1547H300.862L300.937 38.1048L300.943 38.1006C300.958 38.0911 300.972 38.0807 300.985 38.0707C301.046 38.0291 301.106 37.985 301.165 37.9405C301.179 37.9301 301.194 37.9193 301.207 37.9081L301.22 37.8985L301.29 37.8432C301.318 37.8216 301.345 37.8016 301.374 37.7775L301.421 37.7388L301.467 37.6973L301.472 37.6935L301.549 37.6257L301.591 37.5896C301.62 37.5638 301.648 37.5372 301.676 37.5105L301.691 37.496C301.715 37.4735 301.738 37.4511 301.761 37.4278C301.796 37.3937 301.83 37.3583 301.865 37.323L301.93 37.2535L301.948 37.234L301.977 37.2032L302.039 37.1338C302.069 37.0993 302.099 37.0647 302.128 37.0294C302.147 37.0069 302.166 36.9845 302.184 36.9616L302.191 36.9533C302.222 36.9142 302.253 36.8751 302.284 36.8352C302.307 36.8048 302.329 36.7745 302.352 36.7433L302.363 36.7283C302.387 36.6951 302.411 36.6614 302.434 36.6281C302.437 36.6248 302.439 36.6213 302.441 36.6177C302.463 36.5861 302.483 36.5541 302.506 36.5216C302.515 36.5075 302.525 36.4934 302.534 36.4801C302.543 36.4668 302.557 36.4443 302.568 36.426C302.611 36.357 302.653 36.2868 302.695 36.2156C302.706 36.196 302.718 36.174 302.728 36.1565C302.739 36.1391 302.75 36.1149 302.761 36.0966C302.772 36.0783 302.783 36.0551 302.793 36.0368L302.824 35.976C302.834 35.9565 302.844 35.9345 302.853 35.917C302.877 35.8688 302.899 35.8205 302.922 35.7714C302.928 35.7573 302.935 35.7436 302.941 35.7299L302.951 35.7062C302.964 35.6766 302.976 35.6471 302.989 35.6172C303.002 35.5872 303.01 35.5668 303.02 35.5415L303.027 35.5236C303.033 35.5082 303.039 35.4928 303.045 35.4774C303.045 35.4733 303.048 35.4687 303.05 35.4645C303.06 35.4384 303.07 35.4117 303.079 35.3855C303.099 35.3306 303.118 35.2749 303.136 35.2192C303.146 35.1901 303.155 35.1614 303.164 35.1323V35.1285C303.174 35.0936 303.185 35.0587 303.195 35.0237C303.198 35.0129 303.201 35.0013 303.204 34.9901C303.213 34.9568 303.222 34.9235 303.231 34.8907C303.244 34.8362 303.257 34.7813 303.27 34.7243C303.277 34.6915 303.284 34.6586 303.291 34.6254C303.298 34.5921 303.302 34.5676 303.307 34.538C303.311 34.5193 303.314 34.5006 303.317 34.4819C303.326 34.4361 303.333 34.39 303.339 34.3438C303.343 34.3205 303.346 34.2973 303.349 34.2744C303.349 34.2611 303.353 34.2486 303.354 34.2353L303.361 34.1783V34.1646L303.366 34.1093V34.0939C303.37 34.0606 303.372 34.0274 303.375 33.9941C303.375 33.9817 303.376 33.9693 303.378 33.9571C303.377 33.9457 303.377 33.9343 303.378 33.923C303.38 33.8922 303.382 33.8606 303.383 33.8298C303.386 33.7882 303.387 33.7446 303.388 33.7013C303.389 33.6581 303.388 33.6115 303.388 33.5658C303.413 30.491 300.805 28 297.588 28Z" fill="#D7DF36"/>
<path d="M297.808 31.1487C297.808 31.4715 297.808 31.7943 297.808 32.1171C297.808 32.2716 297.814 32.4278 297.793 32.5813C297.798 32.5492 297.802 32.517 297.806 32.4849C297.787 32.6233 297.751 32.7583 297.697 32.8871C297.709 32.8582 297.721 32.8294 297.733 32.8005C297.68 32.9261 297.611 33.0441 297.528 33.1524C297.547 33.1279 297.566 33.1035 297.585 33.079C297.502 33.1861 297.406 33.2822 297.299 33.3655C297.324 33.3466 297.348 33.3277 297.373 33.3088C297.265 33.392 297.147 33.4611 297.022 33.5146C297.051 33.5025 297.08 33.4903 297.108 33.4781C296.98 33.5322 296.846 33.5691 296.708 33.5883C296.74 33.584 296.772 33.5796 296.804 33.5753C296.637 33.5976 296.466 33.5898 296.299 33.5898C296.131 33.5898 295.964 33.5898 295.797 33.5898C295.795 33.5898 295.793 33.5898 295.791 33.5898C295.594 33.5898 295.43 33.7547 295.43 33.9524C295.43 33.9704 295.43 33.9884 295.43 34.0064C295.43 34.1048 295.467 34.1967 295.536 34.2667C295.54 34.2705 295.544 34.2744 295.548 34.2783C295.568 34.2991 295.588 34.3199 295.609 34.3407C295.693 34.4259 295.776 34.5111 295.86 34.5964C296.131 34.8722 296.402 35.1481 296.673 35.4239C296.952 35.7089 297.232 35.9938 297.512 36.2787C297.646 36.415 297.779 36.5512 297.913 36.6874C297.913 36.6875 297.913 36.6877 297.914 36.6878C298.052 36.8285 298.286 36.8268 298.424 36.6878C298.564 36.5474 298.562 36.3156 298.424 36.175C298.297 36.0457 298.17 35.9164 298.043 35.7871C297.765 35.5043 297.488 35.2215 297.21 34.9388C296.937 34.6603 296.663 34.3819 296.39 34.1035C296.275 33.9867 296.16 33.8699 296.046 33.7531C296.081 33.8386 296.116 33.9241 296.152 34.0095C296.152 33.9905 296.152 33.9714 296.152 33.9524C296.031 34.0733 295.911 34.1941 295.791 34.315C295.939 34.315 296.087 34.315 296.235 34.315C296.395 34.315 296.557 34.3222 296.716 34.31C297.06 34.2837 297.399 34.1756 297.683 33.9753C297.958 33.7805 298.193 33.5224 298.336 33.2136C298.409 33.0558 298.467 32.8934 298.496 32.7215C298.516 32.5978 298.53 32.4738 298.53 32.3485C298.53 32.1965 298.53 32.0444 298.53 31.8924C298.53 31.6445 298.53 31.3966 298.53 31.1487C298.53 30.9511 298.366 30.7861 298.169 30.7861C297.972 30.7861 297.808 30.9511 297.808 31.1487Z" fill="white"/>
<path d="M295.791 31.5113C295.964 31.5113 296.137 31.5113 296.31 31.5113C296.698 31.5113 297.085 31.5113 297.473 31.5113C297.877 31.5113 298.281 31.5113 298.685 31.5113C298.907 31.5113 299.129 31.5113 299.351 31.5113C299.357 31.5113 299.362 31.5113 299.368 31.5113C299.564 31.5113 299.728 31.3464 299.728 31.1487C299.728 30.9511 299.564 30.7861 299.368 30.7861C299.194 30.7861 299.021 30.7861 298.848 30.7861C298.46 30.7861 298.073 30.7861 297.685 30.7861C297.281 30.7861 296.878 30.7861 296.474 30.7861C296.251 30.7861 296.029 30.7861 295.807 30.7861C295.802 30.7861 295.796 30.7861 295.791 30.7861C295.594 30.7861 295.43 30.9511 295.43 31.1487C295.43 31.3464 295.594 31.5113 295.791 31.5113Z" fill="white"/>
<path d="M299.368 32.1719C299.194 32.1719 299.021 32.1719 298.848 32.1719C298.46 32.1719 298.073 32.1719 297.685 32.1719C297.281 32.1719 296.878 32.1719 296.474 32.1719C296.251 32.1719 296.029 32.1719 295.807 32.1719C295.802 32.1719 295.796 32.1719 295.791 32.1719C295.594 32.1719 295.43 32.3368 295.43 32.5345C295.43 32.7321 295.594 32.8971 295.791 32.8971C295.964 32.8971 296.137 32.8971 296.31 32.8971C296.698 32.8971 297.085 32.8971 297.473 32.8971C297.877 32.8971 298.281 32.8971 298.685 32.8971C298.907 32.8971 299.129 32.8971 299.351 32.8971C299.357 32.8971 299.362 32.8971 299.368 32.8971C299.564 32.8971 299.728 32.7321 299.728 32.5345C299.728 32.3368 299.564 32.1719 299.368 32.1719Z" fill="white"/>
</g>
<defs>
<clipPath id="clip0_1541_190630">
<rect width="40.3446" height="40" fill="white" transform="translate(120 210)"/>
</clipPath>
<clipPath id="clip1_1541_190630">
<rect width="41.3793" height="40" fill="white" transform="translate(276 28)"/>
</clipPath>
</defs>
</svg>