<svg width="64" height="65" viewBox="0 0 64 65" fill="none" xmlns="http://www.w3.org/2000/svg">
<rect y="0.333984" width="64" height="64" fill="#D9D9D9" fill-opacity="0.01"/>
<path d="M10.4238 42.3535H29.1826C31.3148 42.3535 33.3597 43.2005 34.8673 44.7082C36.375 46.2159 37.222 48.2608 37.222 50.393H47.9939C50.1261 50.393 52.1709 51.24 53.6786 52.7477C55.1863 54.2554 56.0333 56.3002 56.0333 58.4324H10.4238V42.3535Z" fill="white" stroke="#3C0050" stroke-width="2.5" stroke-linecap="round" stroke-linejoin="round"/>
<path d="M38.8614 50.3926H30.3301" stroke="#3C0050" stroke-width="2.5" stroke-linecap="round" stroke-linejoin="round"/>
<path d="M37.5152 41.3557C43.9002 45.5542 52.4716 43.7797 56.6701 37.4106C60.8687 31.0415 59.0942 22.4543 52.7251 18.2557C46.3401 14.0572 37.7687 15.8317 33.5702 22.2008C29.3717 28.5699 31.1461 37.1571 37.5152 41.3557Z" fill="#22D081"/>
<path d="M52.7247 18.2557C46.3398 14.0572 37.7684 15.8317 33.5699 22.2008C31.5102 25.3378 30.8131 29.172 31.6211 32.8318C39.7964 42.5756 56.6698 37.4106 58.6978 27.2549C58.0165 23.5633 55.8459 20.3154 52.7089 18.2557H52.7247Z" fill="white"/>
<path d="M45.5985 44.0008C48.3337 44.0008 51.0073 43.1897 53.2815 41.6702C55.5557 40.1506 57.3282 37.9908 58.3749 35.4639C59.4216 32.937 59.6954 30.1564 59.1618 27.4739C58.6282 24.7913 57.3111 22.3272 55.3771 20.3932C53.4431 18.4592 50.979 17.1421 48.2964 16.6085C45.6139 16.0749 42.8333 16.3488 40.3064 17.3954C37.7795 18.4421 35.6197 20.2146 34.1001 22.4888C32.5806 24.763 31.7695 27.4367 31.7695 30.1718C31.7695 33.8395 33.2265 37.3569 35.82 39.9504C38.4134 42.5438 41.9309 44.0008 45.5985 44.0008Z" stroke="#3C0050" stroke-width="2.5" stroke-linecap="round" stroke-linejoin="round"/>
<path d="M46.0918 13.1896V8.09473" stroke="#3C0050" stroke-width="2.13333" stroke-linecap="round" stroke-linejoin="round"/>
<path d="M51.1855 13.1897V3" stroke="#3C0050" stroke-width="2.13333" stroke-linecap="round" stroke-linejoin="round"/>
<path d="M15.9463 39.2768V60.1736C15.9463 60.5694 15.8065 60.9491 15.5577 61.229C15.3088 61.5089 14.9714 61.6662 14.6195 61.6662H6.65881C6.30693 61.6662 5.96945 61.5089 5.72064 61.229C5.47182 60.9491 5.33203 60.5694 5.33203 60.1736V39.2768C5.33203 38.8809 5.47182 38.5013 5.72064 38.2214C5.96945 37.9414 6.30693 37.7842 6.65881 37.7842H14.6195C14.9714 37.7842 15.3088 37.9414 15.5577 38.2214C15.8065 38.5013 15.9463 38.8809 15.9463 39.2768Z" fill="#F5F5F5" stroke="#3C0050" stroke-width="2.5" stroke-linecap="round" stroke-linejoin="round"/>
<path d="M39.7949 36.0279L51.3345 24.4883" stroke="#3C0050" stroke-width="2.13333" stroke-linecap="round" stroke-linejoin="round"/>
<path d="M41.2398 28.094C42.4348 28.094 43.4035 27.1252 43.4035 25.9303C43.4035 24.7353 42.4348 23.7666 41.2398 23.7666C40.0449 23.7666 39.0762 24.7353 39.0762 25.9303C39.0762 27.1252 40.0449 28.094 41.2398 28.094Z" fill="white" stroke="#3C0050" stroke-width="2.13333" stroke-linecap="round" stroke-linejoin="round"/>
<path d="M49.8902 36.7483C51.0852 36.7483 52.0539 35.7795 52.0539 34.5846C52.0539 33.3896 51.0852 32.4209 49.8902 32.4209C48.6953 32.4209 47.7266 33.3896 47.7266 34.5846C47.7266 35.7795 48.6953 36.7483 49.8902 36.7483Z" fill="white" stroke="#3C0050" stroke-width="2.13333" stroke-linecap="round" stroke-linejoin="round"/>
</svg>
