<svg width="64" height="64" viewBox="0 0 64 64" fill="none" xmlns="http://www.w3.org/2000/svg">
<rect width="64" height="64" fill="#D9D9D9" fill-opacity="0.01"/>
<path d="M56.0013 21.3527V10.6647C56.0013 9.95747 55.7203 9.27919 55.2203 8.7791C54.7202 8.279 54.0419 7.99805 53.3346 7.99805H5.33464C4.62739 7.99805 3.94911 8.279 3.44902 8.7791C2.94892 9.27919 2.66797 9.95747 2.66797 10.6647V21.3527H56.0013Z" fill="#22D081"/>
<path d="M56.0013 13.3314V10.6647C56.0013 9.95747 55.7203 9.27919 55.2203 8.7791C54.7202 8.279 54.0419 7.99805 53.3346 7.99805H5.33464C4.62739 7.99805 3.94911 8.279 3.44902 8.7791C2.94892 9.27919 2.66797 9.95747 2.66797 10.6647V13.3314H56.0013Z" fill="white"/>
<path d="M2.66797 21.3524V47.9977C2.66797 48.705 2.94892 49.3832 3.44902 49.8833C3.94911 50.3834 4.62739 50.6644 5.33464 50.6644H53.3346C54.0419 50.6644 54.7202 50.3834 55.2203 49.8833C55.7203 49.3832 56.0013 48.705 56.0013 47.9977V21.3311L2.66797 21.3524Z" fill="white"/>
<path d="M26.668 50.6647H5.33464C4.62739 50.6647 3.94911 50.3838 3.44902 49.8837C2.94892 49.3836 2.66797 48.7053 2.66797 47.998V10.6647C2.66797 9.95747 2.94892 9.27919 3.44902 8.7791C3.94911 8.279 4.62739 7.99805 5.33464 7.99805H53.3346C54.0419 7.99805 54.7202 8.279 55.2203 8.7791C55.7203 9.27919 56.0013 9.95747 56.0013 10.6647V30.0007" stroke="#3C0050" stroke-width="2.5" stroke-linecap="round" stroke-linejoin="round"/>
<path d="M16.002 2.66699V16.0003" stroke="#3C0050" stroke-width="2.66667" stroke-linecap="round" stroke-linejoin="round"/>
<path d="M42.668 2.66699V16.0003" stroke="#3C0050" stroke-width="2.66667" stroke-linecap="round" stroke-linejoin="round"/>
<path d="M2.66797 21.334H56.0013" stroke="#3C0050" stroke-width="2.5" stroke-linecap="round" stroke-linejoin="round"/>
<path d="M39.3207 57.3959C46.5568 60.1495 54.6465 56.5155 57.4036 49.2951C60.1607 42.0747 56.5232 33.9693 49.3028 31.2122C42.0667 28.4586 33.977 32.0926 31.2199 39.313C28.4628 46.5335 32.1003 54.6388 39.3207 57.3959Z" fill="white"/>
<path d="M50.4539 31.7144C43.4944 28.3219 35.111 31.2145 31.7164 38.158C30.0528 41.5769 29.8486 45.52 31.1343 49.093C40.6106 57.8261 56.8975 50.4518 57.6208 39.9842C56.4584 36.3628 53.8569 33.3801 50.438 31.7164L50.4539 31.7144Z" fill="white"/>
<path d="M46.6306 58.5055C49.3791 58.1515 51.9608 56.9904 54.0493 55.1691C56.1379 53.3478 57.6395 50.948 58.3642 48.2733C59.0888 45.5986 59.0041 42.7691 58.1207 40.1426C57.2373 37.516 55.5948 35.2104 53.4011 33.5173C51.2073 31.8242 48.5607 30.8197 45.796 30.6307C43.0313 30.4417 40.2727 31.0769 37.869 32.4557C35.4652 33.8346 33.5244 35.8953 32.2918 38.3772C31.0592 40.8591 30.5903 43.6508 30.9443 46.3992C31.4191 50.0848 33.3384 53.4308 36.2802 55.7011C39.2219 57.9715 42.9451 58.9803 46.6306 58.5055Z" stroke="#3C0050" stroke-width="2.5" stroke-linecap="round" stroke-linejoin="round"/>
<path d="M44.5527 37.3535V45.7547L50.4924 50.9075" stroke="#3C0050" stroke-width="2.5" stroke-linecap="round" stroke-linejoin="round"/>
</svg>
