<svg width="64" height="64" viewBox="0 0 64 64" fill="none" xmlns="http://www.w3.org/2000/svg">
<rect width="64" height="64" fill="#D9D9D9" fill-opacity="0.01"/>
<path d="M60.1128 30.7779L41.7795 43.0001H22.224L3.89062 30.7779L13.6684 24.0557H50.3351L60.1128 30.7779Z" fill="white" stroke="#3C0050" stroke-width="2.53968" stroke-linecap="round" stroke-linejoin="round"/>
<path d="M50.3327 42.8996V6.33312C50.3327 5.68481 50.0751 5.06306 49.6167 4.60463C49.1583 4.14621 48.5365 3.88867 47.8882 3.88867H16.1105C15.4622 3.88867 14.8404 4.14621 14.382 4.60463C13.9236 5.06306 13.666 5.68481 13.666 6.33312V42.8996H50.3327Z" fill="white"/>
<path d="M49.8438 4.86645C49.6161 4.56286 49.3209 4.31645 48.9814 4.14674C48.642 3.97703 48.2677 3.88867 47.8882 3.88867H16.1105C15.4622 3.88867 14.8404 4.14621 14.382 4.60463C13.9236 5.06306 13.666 5.68481 13.666 6.33312V41.0442L49.8438 4.86645Z" fill="white"/>
<path d="M50.3327 42.8996V6.33312C50.3327 5.68481 50.0751 5.06306 49.6167 4.60463C49.1583 4.14621 48.5365 3.88867 47.8882 3.88867H16.1105C15.4622 3.88867 14.8404 4.14621 14.382 4.60463C13.9236 5.06306 13.666 5.68481 13.666 6.33312V42.8996" stroke="#102F3D" stroke-width="2.53968" stroke-linecap="round" stroke-linejoin="round"/>
<path d="M32.6684 41.3339L60.1128 30.7783V56.445C60.1128 57.4174 59.7265 58.3501 59.0389 59.0377C58.3513 59.7253 57.4186 60.1117 56.4462 60.1117H7.55729C6.58483 60.1117 5.6522 59.7253 4.96457 59.0377C4.27693 58.3501 3.89063 57.4174 3.89062 56.445V30.7783L32.6684 41.3339Z" fill="white" stroke="#3C0050" stroke-width="2.53968" stroke-linecap="round" stroke-linejoin="round"/>
<path d="M31.9883 31.0206C37.4249 31.0206 41.8321 26.6134 41.8321 21.1768C41.8321 15.7402 37.4249 11.333 31.9883 11.333C26.5517 11.333 22.1445 15.7402 22.1445 21.1768C22.1445 26.6134 26.5517 31.0206 31.9883 31.0206Z" fill="#22D081"/>
<path d="M36.4814 18.6211L30.4547 24.6478L27.4414 21.6344" stroke="#102F3D" stroke-width="2.24" stroke-linecap="round" stroke-linejoin="round"/>
</svg>
