<svg width="64" height="64" viewBox="0 0 64 64" fill="none" xmlns="http://www.w3.org/2000/svg">
<path d="M49.1594 51.1309V56.2323C49.1594 59.0381 46.8638 61.3338 44.058 61.3338H21.1014C18.2957 61.3338 16 59.0381 16 56.2323V51.1309H49.1594Z" fill="white"/>
<path d="M49.1594 7.76844V51.1308H16V7.76844C16 4.96264 18.2957 2.66699 21.1014 2.66699H44.058C46.8638 2.66699 49.1594 4.96264 49.1594 7.76844Z" fill="#FFFDFD"/>
<path d="M49.1594 15.0635V7.76844C49.1594 4.96264 46.8638 2.66699 44.058 2.66699H21.1014C18.2957 2.66699 16 4.96264 16 7.76844V48.2229L49.1594 15.0635Z" fill="white"/>
<path d="M49.1594 51.1309H16" stroke="#3C0050" stroke-width="2.5" stroke-linecap="round" stroke-linejoin="round"/>
<path d="M32.5795 54.1055C33.7702 54.1055 34.7058 55.0411 34.7058 56.2318C34.7058 57.4226 33.7702 58.3582 32.5795 58.3582C31.3887 58.3582 30.4531 57.4226 30.4531 56.2318C30.4531 55.0411 31.3887 54.1055 32.5795 54.1055Z" fill="#22D081"/>
<path d="M44.058 2.66699H21.1014C18.284 2.66699 16 4.95099 16 7.76844V56.2322C16 59.0497 18.284 61.3337 21.1014 61.3337H44.058C46.8754 61.3337 49.1594 59.0497 49.1594 56.2322V7.76844C49.1594 4.95099 46.8754 2.66699 44.058 2.66699Z" stroke="#3C0050" stroke-width="2.5" stroke-linecap="round" stroke-linejoin="round"/>
<path d="M33.2188 34.5255C38.1775 34.5255 42.1973 30.5056 42.1973 25.5469C42.1973 20.5882 38.1775 16.5684 33.2188 16.5684C28.2601 16.5684 24.2402 20.5882 24.2402 25.5469C24.2402 30.5056 28.2601 34.5255 33.2188 34.5255Z" fill="white"/>
<path d="M26.865 31.8987C23.3705 28.4042 23.3705 22.7161 26.865 19.1961C30.3595 15.7016 36.0476 15.7016 39.5676 19.1961L26.865 31.8987Z" fill="white"/>
<path d="M33.2201 38.3513C38.5733 38.3513 42.9129 34.0117 42.9129 28.6586C42.9129 23.3054 38.5733 18.9658 33.2201 18.9658C27.8669 18.9658 23.5273 23.3054 23.5273 28.6586C23.5273 34.0117 27.8669 38.3513 33.2201 38.3513Z" fill="#22D081"/>
<path d="M38.1189 25.9033L31.8951 32.1271L28.7832 29.0152" stroke="#3C0050" stroke-width="2.23333" stroke-linecap="round" stroke-linejoin="round"/>
</svg>
