<svg width="64" height="64" viewBox="0 0 64 64" fill="none" xmlns="http://www.w3.org/2000/svg">
<rect width="64" height="64" fill="#D9D9D9" fill-opacity="0.01"/>
<path d="M55.4902 51.5843L52.976 48.0085L52.6128 41.2199C52.529 39.4599 51.8306 37.7837 50.6572 36.4428L44.3156 29.291V38.3983L41.9969 36.2193L40.3487 37.9513C39.3709 38.957 39.3429 40.5494 40.2648 41.5831L44.1201 45.9691L44.3156 51.2491C44.3994 53.3723 45.2655 55.4116 46.7461 56.9202L50.9925 61.2783L55.5461 51.5843H55.4902Z" fill="white"/>
<path d="M8 50.1591V8.25429C8 5.18128 10.5143 2.66699 13.5873 2.66699H38.7302C41.8032 2.66699 44.3175 5.18128 44.3175 8.25429V36.7216C41.4679 35.2689 39.4844 36.0511 38.6743 39.8784L44.3175 50.1591H8Z" fill="#22D081" stroke="#00303E" stroke-width="2.66667" stroke-linecap="round" stroke-linejoin="round"/>
<path d="M44 10.0004C43.5251 7.3464 41.44 2.66699 38.7581 2.66699H13.5873C10.5143 2.66699 8 5.18128 8 8.25429V46.5004L44 10.0004Z" fill="white"/>
<path d="M44.2895 50.1593H8C8.02794 47.5891 8.55873 45.0189 9.56444 42.6443C10.6819 40.4094 15.3194 38.8729 21.1581 36.6939C22.7505 36.1072 22.499 32.0005 21.8006 31.2183C19.5378 28.7878 18.4203 25.4913 18.7556 22.1948C18.3365 18.0043 21.4095 14.2888 25.6 13.8697C25.7956 13.8697 25.9911 13.8418 26.1587 13.8418C30.3771 13.9535 33.6736 17.4735 33.5619 21.664C33.5619 21.8316 33.5619 21.9993 33.534 22.1948C33.8692 25.4913 32.7517 28.7878 30.4889 31.2183C29.7905 32.0005 29.539 36.1072 31.1314 36.6939C36.9702 38.8729 41.6076 40.4094 42.7251 42.6443C43.7308 45.0189 44.2616 47.5891 44.2895 50.1593Z" fill="#F9F9F9"/>
<path d="M33.3638 37.5034C32.6375 37.2241 31.9111 36.9726 31.1289 36.6933C29.5644 36.1066 29.8159 31.9999 30.5143 31.2177C32.7771 28.7872 33.8667 25.4907 33.5594 22.1942C33.9505 18.0037 30.9054 14.2882 26.7149 13.8971C26.5473 13.8971 26.3517 13.8691 26.1841 13.8691C21.9936 13.9809 18.6692 17.4729 18.753 21.6634C18.753 21.831 18.753 22.0266 18.7809 22.1942C18.4457 25.4907 19.5632 28.7872 21.826 31.2177C22.5244 31.972 22.7759 36.1066 21.2114 36.6933C15.3727 38.8444 10.7352 40.3809 9.61777 42.6158C8.61206 44.9904 8.05333 47.5606 8.02539 50.1587H41.5492" stroke="#3C0050" stroke-width="2.5" stroke-linecap="round" stroke-linejoin="round"/>
<path d="M8.58458 50.1592H44.2316V56.3052C44.2316 58.6798 42.3039 60.6354 39.9014 60.6354H12.8868C10.5122 60.6354 8.55664 58.7078 8.55664 56.3052V50.1592H8.58458Z" fill="white"/>
<path d="M44.3175 50.1592H8" stroke="#00303E" stroke-width="2.66667" stroke-linecap="round" stroke-linejoin="round"/>
<path d="M26.1574 55.0479C26.5485 55.0479 26.8558 55.3552 26.8558 55.7463C26.8558 56.1374 26.5485 56.4447 26.1574 56.4447C25.7663 56.4447 25.459 56.1374 25.459 55.7463C25.459 55.3552 25.7663 55.0479 26.1574 55.0479Z" fill="#22D081" stroke="#22D081" stroke-width="2.66667" stroke-miterlimit="10"/>
<path d="M44.3175 37.8391V8.25429C44.3175 5.18128 41.8032 2.66699 38.7302 2.66699H13.5873C10.5143 2.66699 8 5.18128 8 8.25429V55.7464C8 58.8194 10.5143 61.3337 13.5873 61.3337H38.7302C41.8032 61.3337 44.3175 58.8194 44.3175 55.7464V50.1591" stroke="#3C0050" stroke-width="2.5" stroke-linecap="round" stroke-linejoin="round"/>
<path d="M47.6958 41.1912L43.5053 37.0007C42.3878 35.9391 40.6278 35.9671 39.5663 37.0566C38.5326 38.1461 38.5326 39.8502 39.5663 40.9398L44.3434 45.7169V51.5556C44.3434 53.3436 45.0418 55.0477 46.3269 56.3328L51.3275 61.3334" stroke="#00303E" stroke-width="2.66667" stroke-linecap="round" stroke-linejoin="round"/>
<path d="M44.3184 29.207L50.7158 35.6045C51.973 36.8616 52.6993 38.5937 52.6993 40.3816V45.9689C52.6993 47.7569 53.3977 49.461 54.6828 50.7461L55.493 51.5562" stroke="#3C0050" stroke-width="2.5" stroke-linecap="round" stroke-linejoin="round"/>
</svg>
