<svg width="64" height="64" viewBox="0 0 64 64" fill="none" xmlns="http://www.w3.org/2000/svg">
<rect width="64" height="64" fill="#D9D9D9" fill-opacity="0.01"/>
<path d="M32.0013 61.3337C37.8029 61.3337 43.4742 59.6133 48.298 56.3901C53.1219 53.1669 56.8816 48.5857 59.1018 43.2257C61.3219 37.8657 61.9028 31.9678 60.771 26.2777C59.6392 20.5876 56.8454 15.3609 52.7431 11.2585C48.6408 7.1562 43.4141 4.36247 37.7239 3.23064C32.0338 2.0988 26.1359 2.6797 20.7759 4.89987C15.416 7.12004 10.8347 10.8798 7.61153 15.7036C4.38834 20.5275 2.66797 26.1987 2.66797 32.0003C2.66797 39.78 5.75844 47.2411 11.2595 52.7421C16.7606 58.2432 24.2216 61.3337 32.0013 61.3337Z" stroke="#102F3D" stroke-width="2.5" stroke-linecap="round" stroke-linejoin="round"/>
<path d="M31.9305 51.5554C35.7983 51.5554 39.5791 50.4085 42.795 48.2597C46.0109 46.111 48.5174 43.0568 49.9975 39.4835C51.4776 35.9102 51.8649 31.9782 51.1103 28.1848C50.3558 24.3914 48.4933 20.9069 45.7584 18.172C43.0235 15.4371 39.5391 13.5747 35.7457 12.8201C31.9522 12.0655 28.0203 12.4528 24.447 13.9329C20.8737 15.413 17.8195 17.9195 15.6707 21.1354C13.5219 24.3513 12.375 28.1322 12.375 31.9999C12.375 37.1863 14.4353 42.1604 18.1027 45.8278C21.7701 49.4951 26.7441 51.5554 31.9305 51.5554Z" fill="white" stroke="#22D081" stroke-width="2.66667"/>
<path d="M22.2169 47.2125C30.5496 52.5699 41.6369 50.1553 46.9945 41.8431C52.3521 33.5309 49.9373 22.423 41.6251 17.0655C33.2923 11.7081 22.205 14.1227 16.8474 22.4349C11.4899 30.7471 13.9047 41.855 22.2169 47.2125Z" fill="white"/>
<path d="M41.6246 17.0655C33.2919 11.7081 22.2046 14.1227 16.847 22.4349C14.219 26.5289 13.3664 31.5083 14.4627 36.2418C30.3043 54.8142 46.0825 44.8489 49.8599 30.3698C49.8599 23.8513 45.6981 19.6938 41.6041 17.0657L41.6246 17.0655Z" fill="white"/>
<path d="M41.3108 28.3763H35.4777C35.3451 27.2279 34.9609 26.1191 34.35 25.1223H41.2525C41.6547 25.1223 42.0405 24.9695 42.3249 24.6975C42.6093 24.4256 42.7691 24.0567 42.7691 23.672C42.7691 23.2874 42.6093 22.9185 42.3249 22.6465C42.0405 22.3745 41.6547 22.2217 41.2525 22.2217H23.5198C23.1446 22.2622 22.7983 22.4335 22.5468 22.7027C22.2953 22.9719 22.1562 23.3203 22.1562 23.6813C22.1562 24.0423 22.2953 24.3907 22.5468 24.6599C22.7983 24.9291 23.1446 25.1004 23.5198 25.1409H30.4029C31.5101 25.9165 32.2511 27.0797 32.4639 28.3763H24.142C23.7397 28.3763 23.354 28.5291 23.0696 28.8011C22.7851 29.0731 22.6253 29.442 22.6253 29.8266C22.6253 30.2113 22.7851 30.5802 23.0696 30.8521C23.354 31.1241 23.7397 31.2769 24.142 31.2769H32.0945C31.7012 32.1568 31.0567 32.913 30.2348 33.4589C29.413 34.0048 28.4469 34.3183 27.4474 34.3635H27.1752L26.9224 34.4565L26.728 34.5681H26.6308L26.4947 34.7354C26.4662 34.7992 26.4337 34.8613 26.3974 34.9214V35.1259C26.3878 35.1938 26.3878 35.2626 26.3974 35.3304V35.4234C26.3974 35.4234 26.3974 35.535 26.3974 35.5907C26.3974 35.6465 26.3974 35.6837 26.3974 35.7209V35.8511V35.9812V36.0928L26.5336 36.2415C29.4762 39.2274 32.599 42.0461 35.886 44.6832C36.1606 44.9125 36.5132 45.0381 36.8777 45.0365C37.1869 45.0364 37.4888 44.9459 37.7428 44.7771C37.9968 44.6083 38.1907 44.3693 38.2986 44.0921C38.4065 43.8149 38.4232 43.5128 38.3465 43.2263C38.2697 42.9398 38.1032 42.6826 37.8693 42.4891C34.2527 39.4769 32.0361 37.5059 30.5973 36.0928C31.6935 35.6511 32.6805 34.9941 33.4944 34.1646C34.3083 33.335 34.931 32.3512 35.3222 31.2769H41.3108C41.7131 31.2769 42.0988 31.1241 42.3833 30.8521C42.6677 30.5802 42.8275 30.2113 42.8275 29.8266C42.8275 29.442 42.6677 29.0731 42.3833 28.8011C42.0988 28.5291 41.7131 28.3763 41.3108 28.3763Z" fill="#22D081"/>
<path d="M12.377 51.5552L51.4881 10.8145" stroke="#3C0050" stroke-width="2.66667" stroke-linecap="round" stroke-linejoin="round"/>
</svg>
