<svg xmlns="http://www.w3.org/2000/svg" width="48" height="48" viewBox="0 0 48 48">
  <g id="Group_223504" data-name="Group 223504" transform="translate(-488 -207)">
    <rect id="Rectangle_27361" data-name="Rectangle 27361" width="48" height="48" rx="8" transform="translate(488 207)" fill="#e3fcef" opacity="0"/>
    <g id="money-bag-svgrepo-com" transform="translate(447.011 217)">
      <g id="Group_221787" data-name="Group 221787" transform="translate(55.989)">
        <g id="Group_221786" data-name="Group 221786" transform="translate(0)">
          <path id="Path_172490" data-name="Path 172490" d="M68.45,8.078a2.084,2.084,0,0,0-.015-2.649,2.858,2.858,0,0,0,1.049-2.213V.734A.734.734,0,0,0,68.75,0H62.09a.734.734,0,0,0-.734.734V3.216A2.858,2.858,0,0,0,62.4,5.429a2.084,2.084,0,0,0-.015,2.649,8.338,8.338,0,0,0-6.4,8.1V23.2a4.81,4.81,0,0,0,4.8,4.8h9.253a4.81,4.81,0,0,0,4.8-4.8V16.177A8.339,8.339,0,0,0,68.45,8.078ZM62.824,1.469h5.191V3.216A1.4,1.4,0,0,1,66.622,4.61h-.468V3.846a.734.734,0,1,0-1.469,0V4.61h-.468a1.4,1.4,0,0,1-1.393-1.393Zm4.624,5.294a.621.621,0,0,1-.62.62H64.011a.62.62,0,0,1,0-1.241h2.817A.621.621,0,0,1,67.449,6.763ZM73.382,23.2a3.339,3.339,0,0,1-3.335,3.335H60.793A3.339,3.339,0,0,1,57.458,23.2V16.177a6.863,6.863,0,0,1,6.855-6.855h2.214a6.863,6.863,0,0,1,6.855,6.855Z" transform="translate(-55.989)" fill="#00875a"/>
          <path id="Path_172491" data-name="Path 172491" d="M1.4-11.322a.665.665,0,0,1-.531-.2A.67.67,0,0,1,.7-11.97a.637.637,0,0,1,.171-.441A.682.682,0,0,1,1.4-12.6h6.66a.665.665,0,0,1,.531.2.67.67,0,0,1,.171.45.637.637,0,0,1-.171.441.682.682,0,0,1-.531.189H7.092q-.63,0-1.062-.018a5.2,5.2,0,0,1-.522-.036v.072a2.275,2.275,0,0,1,.738.54,2.392,2.392,0,0,1,.54.954H8.064a.665.665,0,0,1,.531.2.67.67,0,0,1,.171.45.637.637,0,0,1-.171.441.682.682,0,0,1-.531.189H6.876a3.355,3.355,0,0,1-.45,1.413,3.377,3.377,0,0,1-.873.963,3.889,3.889,0,0,1-1.134.576A5.7,5.7,0,0,1,3.2-5.328L7.272-1.422a.9.9,0,0,1,.288.648A.818.818,0,0,1,7.344-.2.768.768,0,0,1,6.75.036a1.216,1.216,0,0,1-.387-.063,1.025,1.025,0,0,1-.387-.261L1.188-4.968A1.215,1.215,0,0,1,.9-5.337a.891.891,0,0,1-.09-.387.786.786,0,0,1,.216-.567.739.739,0,0,1,.558-.225h.234a6.225,6.225,0,0,0,1.107-.1,3.22,3.22,0,0,0,.99-.342,2.505,2.505,0,0,0,.747-.621,1.967,1.967,0,0,0,.4-.954H1.4a.665.665,0,0,1-.531-.2A.67.67,0,0,1,.7-9.18a.637.637,0,0,1,.171-.441A.682.682,0,0,1,1.4-9.81H4.968Q4.5-11.322,2.214-11.322Z" transform="translate(5 25)" fill="#00875a"/>
        </g>
      </g>
    </g>
  </g>
</svg>
