<svg xmlns="http://www.w3.org/2000/svg" width="48" height="48" viewBox="0 0 48 48">
  <g id="Group_223506" data-name="Group 223506" transform="translate(-488 -332)">
    <rect id="Rectangle_27361" data-name="Rectangle 27361" width="48" height="48" rx="8" transform="translate(488 332)" fill="#ffebe6" opacity="0"/>
    <g id="calendar-svgrepo-com" transform="translate(499.98 343.6)">
      <g id="Group_221789" data-name="Group 221789" transform="translate(0 0.4)">
        <path id="Path_172493" data-name="Path 172493" d="M8.737,12.081a.4.4,0,0,1-.4.4H6.845a.4.4,0,0,1-.4-.4V10.587a.4.4,0,0,1,.4-.4H8.339a.4.4,0,0,1,.4.4Zm3.12-1.489a.4.4,0,0,0-.4-.4H9.966a.4.4,0,0,0-.4.4v1.494a.4.4,0,0,0,.4.4h1.494a.4.4,0,0,0,.4-.4Zm3.12,0a.4.4,0,0,0-.4-.4H13.086a.4.4,0,0,0-.4.4v1.494a.4.4,0,0,0,.4.4H14.58a.4.4,0,0,0,.4-.4ZM8.737,13.629a.4.4,0,0,0-.4-.4H6.845a.4.4,0,0,0-.4.4v1.494a.4.4,0,0,0,.4.4H8.339a.4.4,0,0,0,.4-.4Zm3.12,0a.4.4,0,0,0-.4-.4H9.966a.4.4,0,0,0-.4.4v1.494a.4.4,0,0,0,.4.4h1.494a.4.4,0,0,0,.4-.4Zm2.722-.4H13.086a.4.4,0,0,0-.4.4v1.494a.4.4,0,0,0,.4.4H14.58a.4.4,0,0,0,.4-.4V13.629A.4.4,0,0,0,14.58,13.23ZM5.214,16.267H3.725a.4.4,0,0,0-.4.4v1.494a.4.4,0,0,0,.4.4H5.219a.4.4,0,0,0,.4-.4V16.665A.4.4,0,0,0,5.214,16.267Zm.4-2.639a.4.4,0,0,0-.4-.4H3.725a.4.4,0,0,0-.4.4v1.494a.4.4,0,0,0,.4.4H5.219a.4.4,0,0,0,.4-.4Zm5.843,2.639H9.966a.4.4,0,0,0-.4.4v1.494a.4.4,0,0,0,.4.4h1.494a.4.4,0,0,0,.4-.4V16.665A.4.4,0,0,0,11.459,16.267Zm-3.12,0H6.845a.4.4,0,0,0-.4.4v1.494a.4.4,0,0,0,.4.4H8.339a.4.4,0,0,0,.4-.4V16.665A.4.4,0,0,0,8.339,16.267ZM17.7,12.484a.4.4,0,0,0,.4-.4V10.592a.4.4,0,0,0-.4-.4H16.206a.4.4,0,0,0-.4.4v1.494a.4.4,0,0,0,.4.4ZM2.344,21.8H13.681a6.11,6.11,0,0,1-.29-1.808H2.344a.532.532,0,0,1-.531-.531V8.783H19.587v4.968a6.1,6.1,0,0,1,1.808.28V5.044A2.347,2.347,0,0,0,19.052,2.7H16.428V1.255A.856.856,0,0,0,15.572.4H14.241a.856.856,0,0,0-.855.855V2.7H8.01V1.255A.856.856,0,0,0,7.155.4H5.823a.856.856,0,0,0-.855.855V2.7H2.344A2.347,2.347,0,0,0,0,5.049V19.461A2.346,2.346,0,0,0,2.344,21.8Zm21.7-1.877a4.477,4.477,0,1,1-4.477-4.477A4.477,4.477,0,0,1,24.039,19.923Zm-2.216-1.16a.52.52,0,0,0-.157-.378.537.537,0,0,0-.762,0l-1.946,1.946-.747-.747a.537.537,0,0,0-.762,0,.528.528,0,0,0-.157.378.52.52,0,0,0,.157.378l1.125,1.125a.537.537,0,0,0,.762,0l2.324-2.324A.506.506,0,0,0,21.823,18.764Z" transform="translate(0 -0.4)" fill="#de350b"/>
      </g>
    </g>
  </g>
</svg>
