<svg xmlns="http://www.w3.org/2000/svg" width="48" height="48" viewBox="0 0 48 48">
  <g id="Group_223507" data-name="Group 223507" transform="translate(-144 -457)">
    <rect id="Rectangle_27361" data-name="Rectangle 27361" width="48" height="48" rx="8" transform="translate(144 457)" fill="#eae6ff" opacity="0"/>
    <g id="refresh-svgrepo-com_1_" data-name="refresh-svgrepo-com (1)" transform="translate(155.971 468.405)">
      <g id="Group_221790" data-name="Group 221790" transform="translate(0 0.596)">
        <path id="Path_172494" data-name="Path 172494" d="M6,18.834a8.369,8.369,0,0,1-2.153-3.08A8.454,8.454,0,0,1,5.6,6.675L7.812,8.891a.227.227,0,0,0,.371-.146L9.393.822A.2.2,0,0,0,9.169.6L1.242,1.808a.227.227,0,0,0-.146.371L3.316,4.4a11.653,11.653,0,0,0,8.591,19.808l.5-3.256A8.456,8.456,0,0,1,6,18.834Z" transform="translate(0 -0.596)" fill="#5243aa"/>
        <path id="Path_172495" data-name="Path 172495" d="M247.83,28.3a11.653,11.653,0,0,0-8.591-19.808l-.5,3.256a8.462,8.462,0,0,1,6.4,2.118,8.369,8.369,0,0,1,2.153,3.08,8.454,8.454,0,0,1-1.747,9.079l-2.216-2.216a.227.227,0,0,0-.371.146l-1.211,7.922a.2.2,0,0,0,.225.225l7.927-1.211a.229.229,0,0,0,.146-.371Z" transform="translate(-227.088 -8.105)" fill="#5243aa"/>
      </g>
    </g>
  </g>
</svg>
