<svg xmlns="http://www.w3.org/2000/svg" width="48" height="48" viewBox="0 0 48 48">
  <g id="Group_223510" data-name="Group 223510" transform="translate(-488 -582)">
    <rect id="Rectangle_27361" data-name="Rectangle 27361" width="48" height="48" rx="8" transform="translate(488 582)" fill="#e3fcef" opacity="0"/>
    <g id="hospital" transform="translate(500 593)">
      <path id="Path_172497" data-name="Path 172497" d="M0,22.854H3.567V.093c0-.209.171,0,.381,0H20.209c.209,0,.381-.209.381,0V22.854h3.567V26H0V22.854ZM10.893,12.424h2.463a.136.136,0,0,1,.135.133v3a.136.136,0,0,1-.135.135H10.893a.136.136,0,0,1-.135-.135v-3a.133.133,0,0,1,.135-.133Zm-.264-9.579h2.9v2.3h2.3v2.9h-2.3v2.3h-2.9V8.04H8.33v-2.9h2.3v-2.3Zm3.521-.893H5.616a.3.3,0,0,0-.273.326V21.514a.306.306,0,0,0,.273.326H18.542a.3.3,0,0,0,.273-.326V2.279a.3.3,0,0,0-.273-.326H14.149Zm-.8,15.446H10.808a.137.137,0,0,0-.138.138V20.53a.137.137,0,0,0,.138.138h2.539a.137.137,0,0,0,.138-.138V17.536a.135.135,0,0,0-.135-.138Zm4.185,0H15.065a.138.138,0,0,0-.138.14V20.53a.137.137,0,0,0,.138.138h2.471a.139.139,0,0,0,.14-.138V17.536a.144.144,0,0,0-.142-.14Zm0-4.964H15.065a.137.137,0,0,0-.138.138v2.994a.139.139,0,0,0,.138.14h2.471a.139.139,0,0,0,.14-.138v-3a.142.142,0,0,0-.142-.138ZM6.621,17.4H9.092a.138.138,0,0,1,.138.14V20.53a.139.139,0,0,1-.138.138H6.621a.139.139,0,0,1-.14-.138V17.536a.141.141,0,0,1,.14-.14Zm0-4.964H9.092a.137.137,0,0,1,.138.138v2.994a.14.14,0,0,1-.138.14H6.621a.139.139,0,0,1-.14-.138v-3a.139.139,0,0,1,.14-.138Z" transform="translate(0 0)" fill="#00875a" fill-rule="evenodd"/>
    </g>
  </g>
</svg>
