<svg xmlns="http://www.w3.org/2000/svg" width="48" height="48" viewBox="0 0 48 48">
  <g id="Group_223508" data-name="Group 223508" transform="translate(-488 -457)">
    <rect id="Rectangle_27361" data-name="Rectangle 27361" width="48" height="48" rx="8" transform="translate(488 457)" fill="#e0ebfd" opacity="0"/>
    <g id="benefits" transform="translate(495.983 468)">
      <path id="Path_172496" data-name="Path 172496" d="M16.015,0l1.532,1.228L19.5.919l.7,1.823,1.844.692L21.727,5.36,22.97,6.873,21.727,8.387l.313,1.926L20.2,11l-.7,1.823-1.948-.309-1.532,1.228-1.532-1.228-1.948.309L11.835,11l-1.844-.692L10.3,8.387,9.061,6.873,10.3,5.36,9.991,3.434l1.844-.692.7-1.823,1.948.309L16.015,0ZM17.31,21.825h5.707c.458-.45.961-.919,1.469-1.4a46.391,46.391,0,0,0,3.337-3.354A6.632,6.632,0,0,0,29.674,13.6c.076-.275.159-.584.268-.968l.682-2.371.008-.026a3.445,3.445,0,0,0,.242-2.155.483.483,0,0,0-.177-.25.313.313,0,0,0-.2-.041.934.934,0,0,0-.56.327l-2.026,4.77a.518.518,0,0,1-.073.121,2.643,2.643,0,0,1-.49.62l-3.594,3.962a.533.533,0,0,1-.748.041.518.518,0,0,1-.042-.739c.487-.535,4.264-4.2,4.071-5.02-.24-1.012-2.813,1.586-3.12,1.853l-.008.008a11.808,11.808,0,0,1-3.339,2.355c-.247.129-.518.268-.854.448a3.263,3.263,0,0,0-.391.255c-.135.1-.266.209-.388.311a3.576,3.576,0,0,0-1.141,1.408,7.648,7.648,0,0,0-.362,1.882c-.039.324-.068.649-.091.97-.013.157-.021.311-.029.463Zm-2.589,0H9.011c-.458-.45-.961-.919-1.472-1.4A46.391,46.391,0,0,1,4.2,17.075,6.632,6.632,0,0,1,2.351,13.6c-.076-.275-.159-.584-.268-.968L1.4,10.258l-.008-.026A3.445,3.445,0,0,1,1.15,8.078a.483.483,0,0,1,.177-.25.313.313,0,0,1,.2-.041.934.934,0,0,1,.56.327l2.026,4.77a.518.518,0,0,0,.073.121,2.643,2.643,0,0,0,.49.62l3.594,3.962a.533.533,0,0,0,.748.041.518.518,0,0,0,.042-.739C8.582,16.352,4.8,12.689,5,11.867c.24-1.012,2.813,1.586,3.12,1.853l.008.008a11.809,11.809,0,0,0,3.339,2.355c.247.129.518.268.854.448a3.263,3.263,0,0,1,.391.255c.135.1.266.209.388.311a3.576,3.576,0,0,1,1.141,1.408,7.648,7.648,0,0,1,.362,1.882c.039.324.068.649.091.97.013.16.021.314.029.466ZM7.683,22a.525.525,0,0,0-.13.345v3.125A.529.529,0,0,0,8.084,26h7.184a.529.529,0,0,0,.531-.525V22.321c0-.335-.021-.7-.044-1.03s-.055-.682-.094-1.019a8.214,8.214,0,0,0-.432-2.15,4.56,4.56,0,0,0-1.44-1.825c-.141-.118-.284-.237-.435-.348a4.436,4.436,0,0,0-.524-.337c-.313-.167-.6-.319-.87-.458a11.018,11.018,0,0,1-3.1-2.193.328.328,0,0,0-.034-.028l-1.36-1.187c-.688-.8-2.05-1.743-3.042-.883C3.893,9.62,3.372,6.909,1.643,6.742a1.371,1.371,0,0,0-.886.206,1.509,1.509,0,0,0-.591.762A4.331,4.331,0,0,0,.39,10.554l.677,2.355c.1.34.185.667.266.955a7.385,7.385,0,0,0,2.076,3.892,47.928,47.928,0,0,0,3.412,3.429c.284.273.57.543.862.819Zm1.016.87a.51.51,0,0,0,.216,0h5.819V24.95H8.615V22.875ZM24.348,22a.525.525,0,0,1,.13.345v3.125a.527.527,0,0,1-.531.525H16.765a.529.529,0,0,1-.531-.525V22.321a.412.412,0,0,1,0-.057c.008-.337.021-.664.042-.973q.035-.514.094-1.019a8.214,8.214,0,0,1,.432-2.15,4.56,4.56,0,0,1,1.44-1.825c.141-.118.284-.237.435-.348a4.436,4.436,0,0,1,.524-.337c.313-.167.6-.319.87-.458a11.018,11.018,0,0,0,3.1-2.193.328.328,0,0,1,.034-.028l1.36-1.187c.688-.8,2.05-1.743,3.042-.883A31.4,31.4,0,0,1,29.067,7.5a2.051,2.051,0,0,1,1.323-.759,1.371,1.371,0,0,1,.886.206,1.509,1.509,0,0,1,.591.762,4.331,4.331,0,0,1-.224,2.845l-.677,2.355c-.1.34-.185.667-.266.955a7.385,7.385,0,0,1-2.076,3.892,47.392,47.392,0,0,1-3.412,3.429c-.287.275-.573.546-.865.821Zm-1.016.87a.51.51,0,0,1-.216,0H17.3V24.95h6.118V22.875ZM16.015,4.423l.716,1.73,1.888.139L17.177,7.5l.451,1.817-1.61-.986-1.61.986L14.859,7.5,13.411,6.294,15.3,6.155l.716-1.73h0Zm0-1.434a3.882,3.882,0,1,1-3.928,3.882,3.906,3.906,0,0,1,3.928-3.882Z" transform="translate(0)" fill="#0065ff" fill-rule="evenodd"/>
    </g>
  </g>
</svg>
