<svg xmlns="http://www.w3.org/2000/svg" width="48" height="48" viewBox="0 0 48 48">
  <g id="Group_223509" data-name="Group 223509" transform="translate(-144 -582)">
    <rect id="Rectangle_27361" data-name="Rectangle 27361" width="48" height="48" rx="8" transform="translate(144 582)" fill="#e6fcff" opacity="0"/>
    <g id="sand-clock-full" transform="translate(158 594)">
      <path id="Path_172498" data-name="Path 172498" d="M16.85,22c.038-3.879-1.357-6.471-3.258-7.8a5.76,5.76,0,0,0-2.37-.971,5.6,5.6,0,0,0-2.49.162c-2.683.8-4.972,3.659-4.925,8.6ZM3.9,3.813H16.756A14.175,14.175,0,0,0,16.85,2H3.808A14.136,14.136,0,0,0,3.9,3.813ZM.178,22H2.046c-.05-5.38,2.377-8.718,5.381-10C4.421,10.723,1.993,7.381,2.046,1.995H.178A.19.19,0,0,1,0,1.795V.2A.19.19,0,0,1,.178,0h20.3a.19.19,0,0,1,.178.2V1.795a.191.191,0,0,1-.178.2H18.61c.044,4.534-1.676,7.625-4.013,9.253A7.611,7.611,0,0,1,13.231,12a7.668,7.668,0,0,1,1.366.758c2.335,1.627,4.054,4.715,4.013,9.242h1.87a.191.191,0,0,1,.178.2V23.8a.191.191,0,0,1-.178.2H.178A.191.191,0,0,1,0,23.8V22.205A.191.191,0,0,1,.178,22Z" fill="#00a3bf"/>
    </g>
  </g>
</svg>
