<?xml version="1.0"?>
<svg width="52.063" height="50.987" xmlns="http://www.w3.org/2000/svg" xmlns:svg="http://www.w3.org/2000/svg">
 <g class="layer">
  <title>Layer 1</title>
  <g data-name="Group 24547" id="Group_24547">
   <rect data-name="Rectangle 5770" fill="none" height="48" id="Rectangle_5770" transform="translate(2209 -6906)" width="48" x="-2209" y="6908.99"/>
   <text data-name="26.7" fill="#3597ec" font-family="Manrope-Bold, Manrope" font-size="23" font-weight="700" id="_26.7" transform="translate(2209 -6894)" x="-2209" y="6908.99">
    <tspan id="svg_1" x="-2208.62" y="6933.99">31.2</tspan>
   </text>
   <g data-name="Group 24546" id="Group_24546" transform="translate(21.938 -60)">
    <g data-name="Path 66087" fill="#fff" id="Path_66087" transform="matrix(-0.829 -0.559 0.559 -0.829 2229.61 -6825.02)">
     <path d="m-2022.62,-6947.91l-1.26,-0.85l-0.17,-0.12l-0.21,0.05l-1.5,0.32l-0.82,-1.25l-0.12,-0.18l-0.21,-0.03l-1.51,-0.26l-0.26,-1.44l-0.04,-0.22l-0.19,-0.12l-1.28,-0.78l0.32,-1.42l0.06,-0.22l-0.14,-0.19l-0.86,-1.19l0.86,-1.19l0.14,-0.19l-0.06,-0.22l-0.32,-1.42l1.28,-0.78l0.19,-0.12l0.04,-0.22l0.26,-1.44l1.51,-0.26l0.21,-0.04l0.12,-0.18l0.82,-1.24l1.5,0.32l0.21,0.04l0.17,-0.12l1.26,-0.85l1.26,0.85l0.18,0.12l0.21,-0.04l1.5,-0.32l0.81,1.24l0.12,0.18l0.22,0.04l1.5,0.26l0.27,1.44l0.04,0.22l0.19,0.12l1.28,0.78l-0.33,1.42l-0.05,0.22l0.13,0.19l0.87,1.19l-0.87,1.19l-0.13,0.19l0.05,0.22l0.33,1.42l-1.28,0.78l-0.19,0.12l-0.04,0.22l-0.27,1.44l-1.5,0.26l-0.22,0.03l-0.12,0.18l-0.82,1.25l-1.49,-0.32l-0.21,-0.05l-0.18,0.12l-1.26,0.85z" id="svg_2"/>
     <path d="m-2022.62,-6948.51l1.33,-0.9l1.59,0.34l0.86,-1.32l1.59,-0.27l0.28,-1.54l1.36,-0.83l-0.35,-1.51l0.92,-1.27l-0.92,-1.27l0.35,-1.51l-1.36,-0.83l-0.28,-1.54l-1.58,-0.27l-0.87,-1.32l-1.59,0.34l-1.33,-0.9l-1.33,0.9l-1.58,-0.34l-0.87,1.32l-1.59,0.27l-0.28,1.54l-1.35,0.83l0.34,1.51l-0.91,1.27l0.91,1.27l-0.34,1.51l1.35,0.83l0.28,1.54l1.59,0.27l0.87,1.32l1.58,-0.34l1.33,0.9m0,1.21l-1.54,-1.04l-1.83,0.39l-1.01,-1.53l-1.85,-0.32l-0.32,-1.78l-1.59,-0.98l0.41,-1.77l-1.08,-1.48l1.08,-1.49l-0.41,-1.77l1.59,-0.97l0.32,-1.79l1.85,-0.31l1.01,-1.53l1.83,0.39l1.54,-1.04l1.54,1.04l1.83,-0.39l1.01,1.53l1.85,0.31l0.33,1.79l1.58,0.97l-0.4,1.77l1.07,1.49l-1.07,1.48l0.4,1.78l-1.58,0.97l-0.33,1.78l-1.85,0.32l-1.01,1.53l-1.83,-0.39l-1.54,1.04z" fill="#f7dece" id="svg_3"/>
    </g>
    <text data-name="%" fill="#3597ec" font-family="Manrope-Bold, Manrope" font-size="10.8" font-weight="700" id="_" transform="translate(2227 -6833)" x="-2209" y="6908.99">
     <tspan id="svg_4" x="-2213.86" y="6908.99">%</tspan>
    </text>
   </g>
   <text data-name="Past Returns" fill="#3597ec" font-family="Manrope" font-size="6.8" font-weight="700" id="Past_Returns" transform="translate(2209 -6867)" x="-2209" y="6908.99">
    <tspan id="svg_5" x="-2206.3" y="6915.99">Past Returns</tspan>
   </text>
  </g>
 </g>
</svg>