<svg xmlns="http://www.w3.org/2000/svg" xmlns:xlink="http://www.w3.org/1999/xlink" width="39.867" height="44.503" viewBox="0 0 39.867 44.503">
  <defs>
    <linearGradient id="linear-gradient" x1="0.5" x2="0.5" y2="1" gradientUnits="objectBoundingBox">
      <stop offset="0" stop-color="#62baf8"/>
      <stop offset="1" stop-color="#497af8"/>
    </linearGradient>
  </defs>
  <g id="Group_24551" data-name="Group 24551" transform="translate(3839.434 7072)">
    <g id="Group_24550" data-name="Group 24550">
      <path id="Path_66065" data-name="Path 66065" d="M19.106.12,1.929,5.488A2.776,2.776,0,0,0,0,8.149v7.51A30.917,30.917,0,0,0,18.942,44.308a2.682,2.682,0,0,0,1.992,0A30.926,30.926,0,0,0,39.867,15.659V8.149a2.776,2.776,0,0,0-1.929-2.661L20.743.12a2.77,2.77,0,0,0-1.638,0Z" transform="translate(-3839.434 -7071.997)" fill="#f7dece"/>
      <path id="Path_66067" data-name="Path 66067" d="M21.51,43.91A29.231,29.231,0,0,1,4,16.89V9.53L21.51,4.05,39,9.53v7.36A29.231,29.231,0,0,1,21.51,43.91Z" transform="translate(-3841 -7073.795)" fill="url(#linear-gradient)"/>
      <g id="Group_24549" data-name="Group 24549" transform="translate(0)">
        <g id="Path_66076" data-name="Path 66076" transform="translate(-3833 -7047)" fill="#fff">
          <path d="M 25.40500068664551 10.33300399780273 L 1.643340826034546 10.33300399780273 C 1.012900829315186 10.33300399780273 0.5000008940696716 9.673724174499512 0.5000008940696716 8.863364219665527 L 0.5000008940696716 1.969633936882019 C 0.5000008940696716 1.159273862838745 1.012900829315186 0.5000039339065552 1.643340826034546 0.5000039339065552 L 25.40500068664551 0.5000039339065552 C 26.03544044494629 0.5000039339065552 26.54834175109863 1.159273862838745 26.54834175109863 1.969633936882019 L 26.54834175109863 8.863364219665527 C 26.54834175109863 9.673724174499512 26.03544044494629 10.33300399780273 25.40500068664551 10.33300399780273 Z" stroke="none"/>
          <path d="M 1.643331527709961 1.000003814697266 C 1.339040756225586 1.000003814697266 1 1.398214340209961 1 1.969634056091309 L 1 8.863364219665527 C 1 9.434783935546875 1.339040756225586 9.833003997802734 1.643331527709961 9.833003997802734 L 25.40500068664551 9.833003997802734 C 25.70929145812988 9.833003997802734 26.04834175109863 9.434783935546875 26.04834175109863 8.863364219665527 L 26.04834175109863 1.969634056091309 C 26.04834175109863 1.398214340209961 25.70929145812988 1.000003814697266 25.40500068664551 1.000003814697266 L 1.643331527709961 1.000003814697266 M 1.643331527709961 3.814697265625e-06 L 25.40500068664551 3.814697265625e-06 C 26.31259155273438 3.814697265625e-06 27.04834175109863 0.8818340301513672 27.04834175109863 1.969634056091309 L 27.04834175109863 8.863364219665527 C 27.04834175109863 9.951164245605469 26.31259155273438 10.83300399780273 25.40500068664551 10.83300399780273 L 1.643331527709961 10.83300399780273 C 0.7357406616210938 10.83300399780273 0 9.951164245605469 0 8.863364219665527 L 0 1.969634056091309 C 0 0.8818340301513672 0.7357406616210938 3.814697265625e-06 1.643331527709961 3.814697265625e-06 Z" stroke="none" fill="#f7dece"/>
        </g>
        <text id="NRI" transform="translate(-3820 -7039)" fill="#3597ec" font-size="8" font-family="ArialRoundedMTBold, Arial Rounded MT Bold"><tspan x="-7.168" y="0">NRI</tspan></text>
      </g>
      <path id="Path_69610" data-name="Path 69610" d="M96,103.013l4.84,2.132L110.61,96ZM110.61,96l-9.045,9.848,2.37,4.762Z" transform="matrix(0.978, 0.208, -0.208, 0.978, -3900.264, -7178.833)" fill="#fff"/>
    </g>
  </g>
</svg>
