<svg width="42" height="38" viewBox="0 0 42 38" fill="none" xmlns="http://www.w3.org/2000/svg">
<path d="M21.4657 3.07763C21.2616 3.07763 21.0659 2.99657 20.9216 2.85228C20.7774 2.70799 20.6963 2.51229 20.6963 2.30823V0.769408C20.6963 0.565349 20.7774 0.369647 20.9216 0.225355C21.0659 0.0810625 21.2616 0 21.4657 0C21.6698 0 21.8655 0.0810625 22.0098 0.225355C22.154 0.369647 22.2351 0.565349 22.2351 0.769408V2.30823C22.2351 2.51229 22.154 2.70799 22.0098 2.85228C21.8655 2.99657 21.6698 3.07763 21.4657 3.07763Z" fill="#FCE4D6"/>
<path d="M8.38586 17.6966C10.9218 17.6966 12.6007 18.8431 13.7994 19.9895C15.8891 18.3768 19.0268 17.6966 21.4658 17.6966C23.9079 17.6966 27.0486 18.3783 29.1368 19.9926C30.3679 18.8307 32.0575 17.6966 34.5473 17.6966C37.0633 17.6966 38.7344 18.8246 39.9316 19.9602C39.907 9.7825 31.6512 1.53906 21.4658 1.53906C11.2788 1.53906 3.02 9.78712 3 19.9695C4.22798 18.8154 5.91298 17.6966 8.38586 17.6966Z" fill="url(#paint0_linear_282_250)"/>
<path opacity="0.2" d="M3 19.9695C4.22798 18.8154 5.91298 17.6966 8.38586 17.6966C10.9249 17.6966 12.6038 18.8461 13.8025 19.9926C13.7871 19.4847 13.7717 18.9769 13.7717 18.466C13.7717 8.26831 18.3882 1.53906 21.4658 1.53906C11.2788 1.53906 3.02 9.78712 3 19.9695Z" fill="white"/>
<path opacity="0.1" d="M29.1291 20.0002C30.3602 18.8354 32.0529 17.6966 34.5473 17.6966C37.0633 17.6966 38.7344 18.8246 39.9316 19.9602C39.907 9.7825 31.6512 1.53906 21.4658 1.53906C24.5435 1.53906 29.1599 8.26831 29.1599 18.466C29.1599 18.98 29.1461 19.4909 29.1291 20.0002Z" fill="black"/>
<path d="M5.8575 26.0865H3.9875C4.17083 26.2038 4.31383 26.3395 4.4165 26.4935C4.51917 26.6438 4.5925 26.8088 4.6365 26.9885H5.8575V28.0335H4.631C4.54667 28.3745 4.378 28.677 4.125 28.941C3.872 29.205 3.54017 29.4103 3.1295 29.557C3.24317 29.6083 3.34767 29.6762 3.443 29.7605C3.542 29.8448 3.63 29.9457 3.707 30.063L5.698 33H4.3615C4.11217 33 3.92883 32.901 3.8115 32.703L2.1395 30.1565C2.07717 30.0612 2.0075 29.9933 1.9305 29.953C1.85717 29.9127 1.74717 29.8925 1.6005 29.8925H0.5665V28.8915H1.6555C2.0735 28.8915 2.40717 28.8127 2.6565 28.655C2.9095 28.4973 3.08733 28.2902 3.19 28.0335H0.561V26.9885H3.223C3.135 26.7208 2.96267 26.5118 2.706 26.3615C2.453 26.2075 2.11017 26.1305 1.6775 26.1305H0.5665V25.047H5.8575V26.0865ZM12.0856 31.735C12.2323 31.735 12.3478 31.7772 12.4321 31.8615C12.5201 31.9422 12.5641 32.0503 12.5641 32.186V33H7.10812V32.549C7.10812 32.4573 7.12645 32.362 7.16312 32.263C7.20345 32.1603 7.26578 32.0687 7.35012 31.988L9.76462 29.568C9.96628 29.3627 10.146 29.1665 10.3036 28.9795C10.465 28.7925 10.5988 28.6073 10.7051 28.424C10.8115 28.2407 10.8921 28.0555 10.9471 27.8685C11.0058 27.6778 11.0351 27.478 11.0351 27.269C11.0351 27.0783 11.0076 26.9115 10.9526 26.7685C10.8976 26.6218 10.8188 26.499 10.7161 26.4C10.6171 26.301 10.4961 26.2277 10.3531 26.18C10.2138 26.1287 10.0561 26.103 9.88012 26.103C9.71878 26.103 9.56845 26.1268 9.42912 26.1745C9.29345 26.2185 9.17245 26.2827 9.06612 26.367C8.95978 26.4477 8.86995 26.543 8.79662 26.653C8.72328 26.763 8.66828 26.884 8.63162 27.016C8.56928 27.1847 8.48862 27.2965 8.38962 27.3515C8.29062 27.4065 8.14762 27.4193 7.96062 27.39L7.24562 27.2635C7.30062 26.8822 7.40695 26.5485 7.56462 26.2625C7.72228 25.9728 7.91845 25.7327 8.15312 25.542C8.39145 25.3477 8.66278 25.2028 8.96712 25.1075C9.27512 25.0085 9.60512 24.959 9.95712 24.959C10.3238 24.959 10.6593 25.014 10.9636 25.124C11.268 25.2303 11.5283 25.3825 11.7446 25.5805C11.961 25.7785 12.1296 26.0168 12.2506 26.2955C12.3716 26.5742 12.4321 26.884 12.4321 27.225C12.4321 27.5183 12.3881 27.7897 12.3001 28.039C12.2158 28.2883 12.1003 28.5267 11.9536 28.754C11.8106 28.9813 11.642 29.2013 11.4476 29.414C11.2533 29.6267 11.0498 29.843 10.8371 30.063L9.04412 31.8945C9.21645 31.8432 9.38695 31.8047 9.55562 31.779C9.72795 31.7497 9.89112 31.735 10.0451 31.735H12.0856ZM19.738 31.1245C19.8186 31.1245 19.8901 31.1557 19.9525 31.218L20.5355 31.8505C20.2128 32.2502 19.815 32.5563 19.342 32.769C18.8726 32.9817 18.308 33.088 17.648 33.088C17.0576 33.088 16.526 32.9872 16.053 32.7855C15.5836 32.5838 15.1821 32.3033 14.8485 31.944C14.5148 31.5847 14.2581 31.1557 14.0785 30.657C13.9025 30.1583 13.8145 29.6138 13.8145 29.0235C13.8145 28.4258 13.9098 27.8795 14.1005 27.3845C14.2911 26.8858 14.5588 26.4568 14.9035 26.0975C15.2518 25.7382 15.6661 25.4595 16.1465 25.2615C16.6268 25.0598 17.1585 24.959 17.7415 24.959C18.3208 24.959 18.8341 25.0543 19.2815 25.245C19.7325 25.4357 20.1156 25.685 20.431 25.993L19.936 26.6805C19.9066 26.7245 19.8681 26.763 19.8205 26.796C19.7765 26.829 19.7141 26.8455 19.6335 26.8455C19.5785 26.8455 19.5216 26.8308 19.463 26.8015C19.4043 26.7685 19.3401 26.73 19.2705 26.686C19.2008 26.6383 19.1201 26.587 19.0285 26.532C18.9368 26.477 18.8305 26.4275 18.7095 26.3835C18.5885 26.3358 18.4473 26.2973 18.286 26.268C18.1283 26.235 17.945 26.2185 17.736 26.2185C17.3803 26.2185 17.054 26.2827 16.757 26.411C16.4636 26.5357 16.2106 26.719 15.998 26.961C15.7853 27.1993 15.6203 27.4927 15.503 27.841C15.3856 28.1857 15.327 28.5798 15.327 29.0235C15.327 29.4708 15.3893 29.8687 15.514 30.217C15.6423 30.5653 15.8146 30.8587 16.031 31.097C16.2473 31.3353 16.5021 31.5187 16.7955 31.647C17.0888 31.7717 17.4041 31.834 17.7415 31.834C17.9431 31.834 18.1246 31.823 18.286 31.801C18.451 31.779 18.6013 31.7442 18.737 31.6965C18.8763 31.6488 19.0065 31.5883 19.1275 31.515C19.2521 31.438 19.375 31.3445 19.496 31.2345C19.5326 31.2015 19.5711 31.1758 19.6115 31.1575C19.6518 31.1355 19.694 31.1245 19.738 31.1245ZM22.9145 28.336C23.0905 27.9987 23.2995 27.7347 23.5415 27.544C23.7835 27.3497 24.0695 27.2525 24.3995 27.2525C24.6598 27.2525 24.8688 27.3093 25.0265 27.423L24.9385 28.4405C24.9201 28.5065 24.8926 28.5542 24.856 28.5835C24.823 28.6092 24.7771 28.622 24.7185 28.622C24.6635 28.622 24.581 28.6128 24.471 28.5945C24.3646 28.5762 24.2601 28.567 24.1575 28.567C24.0071 28.567 23.8733 28.589 23.756 28.633C23.6386 28.677 23.5323 28.7412 23.437 28.8255C23.3453 28.9062 23.2628 29.0052 23.1895 29.1225C23.1198 29.2398 23.0538 29.3737 22.9915 29.524V33H21.633V27.357H22.4305C22.5698 27.357 22.667 27.3827 22.722 27.434C22.777 27.4817 22.8136 27.5697 22.832 27.698L22.9145 28.336ZM28.3923 27.269C28.8103 27.269 29.1898 27.3368 29.5308 27.4725C29.8755 27.6082 30.1688 27.8007 30.4108 28.05C30.6565 28.2993 30.8453 28.6037 30.9773 28.963C31.1093 29.3223 31.1753 29.7238 31.1753 30.1675C31.1753 30.6148 31.1093 31.0182 30.9773 31.3775C30.8453 31.7368 30.6565 32.043 30.4108 32.296C30.1688 32.549 29.8755 32.7433 29.5308 32.879C29.1898 33.0147 28.8103 33.0825 28.3923 33.0825C27.9707 33.0825 27.5875 33.0147 27.2428 32.879C26.8982 32.7433 26.603 32.549 26.3573 32.296C26.1153 32.043 25.9265 31.7368 25.7908 31.3775C25.6588 31.0182 25.5928 30.6148 25.5928 30.1675C25.5928 29.7238 25.6588 29.3223 25.7908 28.963C25.9265 28.6037 26.1153 28.2993 26.3573 28.05C26.603 27.8007 26.8982 27.6082 27.2428 27.4725C27.5875 27.3368 27.9707 27.269 28.3923 27.269ZM28.3923 32.0375C28.8617 32.0375 29.2082 31.8798 29.4318 31.5645C29.6592 31.2492 29.7728 30.7872 29.7728 30.1785C29.7728 29.5698 29.6592 29.106 29.4318 28.787C29.2082 28.468 28.8617 28.3085 28.3923 28.3085C27.9157 28.3085 27.5618 28.4698 27.3308 28.7925C27.1035 29.1115 26.9898 29.5735 26.9898 30.1785C26.9898 30.7835 27.1035 31.2455 27.3308 31.5645C27.5618 31.8798 27.9157 32.0375 28.3923 32.0375ZM33.8132 28.336C33.9892 27.9987 34.1982 27.7347 34.4402 27.544C34.6822 27.3497 34.9682 27.2525 35.2982 27.2525C35.5586 27.2525 35.7676 27.3093 35.9252 27.423L35.8372 28.4405C35.8189 28.5065 35.7914 28.5542 35.7547 28.5835C35.7217 28.6092 35.6759 28.622 35.6172 28.622C35.5622 28.622 35.4797 28.6128 35.3697 28.5945C35.2634 28.5762 35.1589 28.567 35.0562 28.567C34.9059 28.567 34.7721 28.589 34.6547 28.633C34.5374 28.677 34.4311 28.7412 34.3357 28.8255C34.2441 28.9062 34.1616 29.0052 34.0882 29.1225C34.0186 29.2398 33.9526 29.3737 33.8902 29.524V33H32.5317V27.357H33.3292C33.4686 27.357 33.5657 27.3827 33.6207 27.434C33.6757 27.4817 33.7124 27.5697 33.7307 27.698L33.8132 28.336ZM40.4296 29.5295C40.4296 29.3535 40.404 29.1885 40.3526 29.0345C40.305 28.8768 40.2316 28.7393 40.1326 28.622C40.0336 28.5047 39.9071 28.413 39.7531 28.347C39.6028 28.2773 39.4268 28.2425 39.2251 28.2425C38.8328 28.2425 38.523 28.3543 38.2956 28.578C38.072 28.8017 37.929 29.1188 37.8666 29.5295H40.4296ZM37.8391 30.349C37.8611 30.6387 37.9125 30.8898 37.9931 31.1025C38.0738 31.3115 38.1801 31.4857 38.3121 31.625C38.4441 31.7607 38.6 31.8633 38.7796 31.933C38.963 31.999 39.1646 32.032 39.3846 32.032C39.6046 32.032 39.7935 32.0063 39.9511 31.955C40.1125 31.9037 40.2518 31.8468 40.3691 31.7845C40.4901 31.7222 40.5946 31.6653 40.6826 31.614C40.7743 31.5627 40.8623 31.537 40.9466 31.537C41.0603 31.537 41.1446 31.5792 41.1996 31.6635L41.5901 32.1585C41.4398 32.3345 41.2711 32.483 41.0841 32.604C40.8971 32.7213 40.701 32.8167 40.4956 32.89C40.294 32.9597 40.0868 33.0092 39.8741 33.0385C39.6651 33.0678 39.4616 33.0825 39.2636 33.0825C38.8713 33.0825 38.5065 33.0183 38.1691 32.89C37.8318 32.758 37.5385 32.5655 37.2891 32.3125C37.0398 32.0558 36.8436 31.7405 36.7006 31.3665C36.5576 30.9888 36.4861 30.5525 36.4861 30.0575C36.4861 29.6725 36.5485 29.3113 36.6731 28.974C36.7978 28.633 36.9756 28.3378 37.2066 28.0885C37.4413 27.8355 37.7255 27.6357 38.0591 27.489C38.3965 27.3423 38.776 27.269 39.1976 27.269C39.5533 27.269 39.8815 27.3258 40.1821 27.4395C40.4828 27.5532 40.7413 27.72 40.9576 27.94C41.174 28.1563 41.3426 28.424 41.4636 28.743C41.5883 29.0583 41.6506 29.4195 41.6506 29.8265C41.6506 30.0318 41.6286 30.1712 41.5846 30.2445C41.5406 30.3142 41.4563 30.349 41.3316 30.349H37.8391Z" fill="url(#paint1_linear_282_250)"/>
<defs>
<linearGradient id="paint0_linear_282_250" x1="-1.61645" y1="22.2992" x2="16.8297" y2="-14.6176" gradientUnits="userSpaceOnUse">
<stop stop-color="#046FCC"/>
<stop offset="1" stop-color="#3597EC"/>
</linearGradient>
<linearGradient id="paint1_linear_282_250" x1="-5.25" y1="40.25" x2="11.0431" y2="2.23276" gradientUnits="userSpaceOnUse">
<stop stop-color="#046FCC"/>
<stop offset="1" stop-color="#3597EC"/>
</linearGradient>
</defs>
</svg>
