<svg xmlns="http://www.w3.org/2000/svg" xmlns:xlink="http://www.w3.org/1999/xlink" width="46" height="48" viewBox="0 0 46 48">
  <defs>
    <linearGradient id="linear-gradient" x1="0.5" x2="0.5" y2="1" gradientUnits="objectBoundingBox">
      <stop offset="0" stop-color="#62baf8"/>
      <stop offset="1" stop-color="#497af8"/>
    </linearGradient>
  </defs>
  <g id="money-back" transform="translate(-3 -2)">
    <path id="Path_66086" data-name="Path 66086" d="M3,25.2v1.6A23.1,23.1,0,0,0,26,50h0A23.1,23.1,0,0,0,49,26.8h0A23.1,23.1,0,0,0,26,3.6H22.828V2L17.276,6l5.552,4V8.4H26A18.321,18.321,0,0,1,44.241,26.8h0A18.321,18.321,0,0,1,26,45.2h0A18.321,18.321,0,0,1,7.759,26.8V25.2Z" transform="translate(0 0)" fill="url(#linear-gradient)"/>
    <g id="Path_66087" data-name="Path 66087" transform="translate(-2.25 -1.882)" fill="#fff">
      <path d="M 28.25 42.24289321899414 L 26.14616203308105 40.82048034667969 L 25.79268264770508 40.58148956298828 L 25.37555122375488 40.67131042480469 L 22.87099838256836 41.21062088012695 L 21.50482177734375 39.13195037841797 L 21.26576232910156 38.76821136474609 L 20.83663177490234 38.6953010559082 L 18.32488441467285 38.26860046386719 L 17.88701248168945 35.8648796081543 L 17.80689239501953 35.42504119873047 L 17.42567253112793 35.19145202636719 L 15.29380226135254 33.8851203918457 L 15.83966159820557 31.52231025695801 L 15.94214153289795 31.07872009277344 L 15.67486190795898 30.71016120910645 L 14.23526477813721 28.72499847412109 L 15.67486190795898 26.73983001708984 L 15.9421215057373 26.37129020690918 L 15.83967208862305 25.92773056030273 L 15.29376602172852 23.56412315368652 L 17.42567253112793 22.25777053833008 L 17.80686187744141 22.02420043945312 L 17.88700103759766 21.58438110351562 L 18.32484436035156 19.18144226074219 L 20.83739280700684 18.75471115112305 L 21.26654243469238 18.68181991577148 L 21.5056209564209 18.31805992126465 L 22.87177848815918 16.23941230773926 L 25.37550163269043 16.7786808013916 L 25.79266166687012 16.8685302734375 L 26.14616203308105 16.62952041625977 L 28.25 15.207106590271 L 30.35383224487305 16.62952041625977 L 30.70731163024902 16.86851119995117 L 31.12444114685059 16.77869033813477 L 33.62900161743164 16.2393798828125 L 34.99518203735352 18.31805992126465 L 35.2342414855957 18.68180084228516 L 35.66337203979492 18.75471115112305 L 38.17512130737305 19.18141174316406 L 38.61300277709961 21.58512115478516 L 38.69313049316406 22.02495956420898 L 39.0743408203125 22.25856018066406 L 41.20619964599609 23.56488037109375 L 40.66034317016602 25.92768096923828 L 40.557861328125 26.37127113342285 L 40.82514190673828 26.73983001708984 L 42.26473999023438 28.72499847412109 L 40.82514190673828 30.71016120910645 L 40.55788040161133 31.07868957519531 L 40.66033172607422 31.52226066589355 L 41.20623779296875 33.88587188720703 L 39.07433319091797 35.19223022460938 L 38.69315338134766 35.42580032348633 L 38.61301040649414 35.86561965942383 L 38.17516326904297 38.26856994628906 L 35.66261291503906 38.6953010559082 L 35.23346328735352 38.76818084716797 L 34.99438095092773 39.13195037841797 L 33.62822723388672 41.21059036254883 L 31.12449264526367 40.67132186889648 L 30.70733261108398 40.58147048950195 L 30.35383224487305 40.82048034667969 L 28.25 42.24289321899414 Z" stroke="none"/>
      <path d="M 28.25 16.41422271728516 L 25.99925231933594 17.93595886230469 L 23.33109283447266 17.36127471923828 L 21.86314010620117 19.59481048583984 L 19.18304443359375 20.04999923706055 L 18.71052169799805 22.64326858520508 L 16.43013763427734 24.04061508178711 L 17.01890182495117 26.58982086181641 L 15.47053146362305 28.72499847412109 L 17.01894378662109 30.86021995544434 L 16.43021392822266 33.40865325927734 L 18.7105712890625 34.80596923828125 L 19.18312454223633 37.40007019042969 L 21.86236190795898 37.85522079467773 L 23.3303337097168 40.08879089355469 L 25.99930191040039 39.51406860351562 L 28.25 41.0357780456543 L 30.50074195861816 39.5140380859375 L 33.16890716552734 40.08872985839844 L 34.63687133789062 37.85517883300781 L 37.31696319580078 37.40000152587891 L 37.78948974609375 34.80673217773438 L 40.06986236572266 33.40939331054688 L 39.48109436035156 30.86017036437988 L 41.02946853637695 28.72500038146973 L 39.48105239868164 26.58977127075195 L 40.06979370117188 24.04133987426758 L 37.78944396972656 22.6440315246582 L 37.31687927246094 20.04993057250977 L 34.63764190673828 19.59476852416992 L 33.1696662902832 17.3612060546875 L 30.50069236755371 17.93593215942383 L 28.25 16.41422271728516 M 28.25000190734863 14 L 30.91393280029297 15.80110168457031 L 34.08834075927734 15.11754989624023 L 35.83085250854492 17.76882171630859 L 39.03336334228516 18.31288146972656 L 39.59680938720703 21.40589904785156 L 42.34261322021484 23.08842086791992 L 41.63468170166016 26.15277099609375 L 43.5 28.72500038146973 L 41.63468170166016 31.29722023010254 L 42.34261322021484 34.36235046386719 L 39.59680938720703 36.04487991333008 L 39.03336334228516 39.13713073730469 L 35.83005142211914 39.68116760253906 L 34.08753967285156 42.33245086669922 L 30.91393280029297 41.64889907836914 L 28.25000190734863 43.45000076293945 L 25.58606147766113 41.64889907836914 L 22.41165161132812 42.33245086669922 L 20.66915130615234 39.68116760253906 L 17.46664047241211 39.13713073730469 L 16.90320205688477 36.04409790039062 L 14.15739059448242 34.361572265625 L 14.86531066894531 31.29722023010254 L 13.00000381469727 28.72500038146973 L 14.86531066894531 26.15277099609375 L 14.15739059448242 23.08765029907227 L 16.90320205688477 21.40512084960938 L 17.46664047241211 18.31288146972656 L 20.66995239257812 17.76882171630859 L 22.41246032714844 15.11754989624023 L 25.58606147766113 15.80110168457031 L 28.25000190734863 14 Z" stroke="none" fill="#f7dece"/>
    </g>
    <path id="rupee_1_" data-name="rupee (1)" d="M16.617,6.539H14.659a4.853,4.853,0,0,0-.95-1.769h2.908a.885.885,0,0,0,0-1.769H6.885a.885.885,0,1,0,0,1.769h3.1a3.092,3.092,0,0,1,2.786,1.769H6.885a.885.885,0,0,0,0,1.769h6.148a3.092,3.092,0,0,1-3.052,2.654h-3.1a.9.9,0,0,0-.671,1.461l5.315,6.193a.885.885,0,0,0,1.343-1.153L8.81,12.732H9.981a4.871,4.871,0,0,0,4.844-4.424h1.792a.885.885,0,0,0,0-1.769Z" transform="translate(14.249 15.805)" fill="#3597ec"/>
  </g>
</svg>
